<svg width="25" height="24" viewBox="0 0 25 24" fill="none" xmlns="http://www.w3.org/2000/svg">
<g clip-path="url(#clip0_2546_8471)">
<path fill-rule="evenodd" clip-rule="evenodd" d="M14.3722 11.4736C12.3315 12.9233 11 15.3061 11 18C11 19.4571 11.3896 20.8233 12.0703 22L0.5 22C0.223858 22 0 21.7761 0 21.5V19.4299C0 18.544 0.468853 17.7242 1.23245 17.275L7.64884 13.5007C8.12064 13.2232 8.28164 12.6179 8.01006 12.1426L6.5 9.5L6.18212 9.02318C5.78549 8.42824 5.86394 7.63606 6.36953 7.13047L6.5 7L6.5 3.54471C6.5 3.12814 6.6041 2.71818 6.80283 2.35207C7.65397 0.784023 9.05303 0 11 0C12.947 0 14.346 0.784027 15.1972 2.35208C15.3959 2.71819 15.5 3.12815 15.5 3.54472V7L15.6305 7.13047C16.1361 7.63606 16.2145 8.42824 15.8179 9.02318L15.5 9.5L14.3722 11.4736ZM19 24C15.6863 24 13 21.3137 13 18C13 14.6863 15.6863 12 19 12C22.3137 12 25 14.6863 25 18C25 21.3137 22.3137 24 19 24ZM19.75 17.25V14.5H18.25V17.25H15.5V18.75H18.25V21.5H19.75V18.75H22.5V17.25H19.75Z" fill="#3659A3"/>
</g>
<defs>
<clipPath id="clip0_2546_8471">
<rect width="25" height="24" fill="white"/>
</clipPath>
</defs>
</svg>
