<svg width="16" height="18" viewBox="0 0 16 18" fill="none" xmlns="http://www.w3.org/2000/svg">
<path d="M3.46612 17.4411C3.4684 16.6924 3.4584 15.9432 3.47566 15.1945C3.5111 13.6483 4.20568 12.4986 5.5794 11.7786C6.0155 11.5501 6.48749 11.4158 6.97992 11.4104C7.62453 11.4035 8.27595 11.3753 8.9133 11.4509C10.4851 11.6375 11.7888 12.9356 12.036 14.5004C12.0764 14.7571 12.0946 15.0192 12.0977 15.2791C12.1077 15.9996 12.1046 16.7201 12.1064 17.4406C9.22629 17.4411 6.34621 17.4411 3.46612 17.4411Z" fill="#1B3468"/>
<path d="M15.5038 6.21187C15.5038 7.25007 15.5038 8.28235 15.5038 9.3301C15.125 9.42113 14.7466 9.5117 14.3677 9.60273C14.34 9.60911 14.3123 9.61411 14.285 9.62185C14.0633 9.6833 13.7908 9.68694 13.6341 9.82348C13.4814 9.95639 13.4415 10.224 13.3651 10.437C13.347 10.4875 13.3665 10.5672 13.3965 10.6168C13.6713 11.0738 13.9521 11.5266 14.2305 11.9813C14.2628 12.0337 14.2932 12.0874 14.3309 12.1511C13.858 12.6586 13.3878 13.1629 12.9068 13.6795C12.3771 12.1898 11.3945 11.173 9.91993 10.6159C10.883 9.77751 11.335 8.73704 11.181 7.469C11.0747 6.59329 10.664 5.86733 9.99398 5.29566C8.62072 4.12411 6.57695 4.24062 5.31226 5.54463C4.02121 6.87548 3.96443 9.24226 5.64842 10.6186C4.20156 11.1616 3.21897 12.1639 2.68248 13.629C2.55028 13.5025 2.43263 13.39 2.31497 13.2772C1.967 12.9435 1.62175 12.6067 1.26878 12.2781C1.18247 12.1975 1.16839 12.142 1.23426 12.0378C1.53135 11.5681 1.81663 11.0911 2.11146 10.62C2.16279 10.5381 2.16824 10.4743 2.12418 10.3883C2.06012 10.2622 1.99516 10.1325 1.96064 9.99689C1.91521 9.8162 1.80528 9.75066 1.63402 9.71379C1.13613 9.60683 0.641886 9.48258 0.146276 9.36469C0.0976684 9.35331 0.0504242 9.33647 0 9.32145C0 8.2828 0 7.25052 0 6.20687C0.5742 6.06896 1.14386 5.92741 1.71669 5.7986C1.8398 5.77083 1.90022 5.71576 1.9352 5.60015C1.96927 5.48682 2.00697 5.36894 2.07057 5.27108C2.18686 5.09084 2.14189 4.94884 2.03332 4.7818C1.76076 4.36397 1.51045 3.93158 1.24334 3.51011C1.18111 3.4118 1.17793 3.35445 1.26606 3.26751C1.93565 2.60482 2.60025 1.93757 3.26258 1.2685C3.33981 1.19067 3.39341 1.17884 3.49063 1.23983C3.95489 1.53385 4.42643 1.8165 4.89115 2.11007C4.98473 2.16924 5.05695 2.17607 5.15417 2.12282C5.26774 2.06091 5.38857 2.0022 5.5135 1.97216C5.70793 1.92574 5.77425 1.80285 5.81332 1.61988C5.91825 1.12649 6.04091 0.636753 6.1572 0.146103C6.16856 0.097857 6.184 0.0500664 6.19808 0C7.23746 0 8.2682 0 9.31076 0C9.4375 0.530704 9.57514 1.0564 9.68417 1.58801C9.72778 1.80011 9.82999 1.89069 10.0194 1.99082C10.3688 2.17561 10.6395 2.14239 10.9507 1.90935C11.2896 1.65583 11.6712 1.45966 12.0296 1.23163C12.1141 1.17793 12.1613 1.18703 12.2299 1.25667C12.9009 1.93393 13.5736 2.60891 14.2505 3.2798C14.3296 3.35809 14.3227 3.40998 14.2696 3.49554C13.9752 3.96708 13.6886 4.44316 13.3938 4.91424C13.3433 4.99526 13.3352 5.05853 13.3779 5.14637C13.4542 5.30431 13.5228 5.4668 13.5791 5.63292C13.6136 5.73397 13.6727 5.77038 13.7708 5.79268C14.3059 5.91466 14.8397 6.04392 15.3735 6.17137C15.4166 6.18138 15.458 6.19731 15.5038 6.21187Z" fill="#1B3468"/>
<path d="M10.1757 7.92527C10.1725 9.24839 9.10272 10.3175 7.78397 10.3166C6.45977 10.3153 5.39041 9.23428 5.39768 7.90342C5.40449 6.58212 6.48067 5.51343 7.7976 5.5198C9.11499 5.52572 10.1789 6.60169 10.1757 7.92527Z" fill="#1B3468"/>
</svg>
