<svg width="24" height="18" viewBox="0 0 24 18" fill="none" xmlns="http://www.w3.org/2000/svg">
<path d="M9 6.75C9 7.99265 7.99265 9 6.75 9C5.50735 9 4.5 7.99265 4.5 6.75C4.5 5.50735 5.50735 4.5 6.75 4.5C7.99265 4.5 9 5.50735 9 6.75Z" fill="#1B3468"/>
<path d="M3 11.5482C3 10.7622 3.63719 10.125 4.42318 10.125H9.07681C9.86281 10.125 10.5 10.7622 10.5 11.5482C10.5 12.819 9.63507 13.9267 8.40216 14.235L8.31364 14.2572C7.28701 14.5138 6.21298 14.5138 5.18635 14.2572L5.09784 14.235C3.86491 13.9267 3 12.819 3 11.5482Z" fill="#1B3468"/>
<path d="M14.25 6C13.8359 6 13.5 6.33579 13.5 6.75C13.5 7.16421 13.8359 7.5 14.25 7.5H18.75C19.1642 7.5 19.5 7.16421 19.5 6.75C19.5 6.33579 19.1642 6 18.75 6H14.25Z" fill="#1B3468"/>
<path d="M14.25 10.5C13.8359 10.5 13.5 10.8359 13.5 11.25C13.5 11.6641 13.8359 12 14.25 12H18.75C19.1642 12 19.5 11.6641 19.5 11.25C19.5 10.8359 19.1642 10.5 18.75 10.5H14.25Z" fill="#1B3468"/>
<path d="M0 2.625C0 1.17525 1.17525 0 2.625 0H21.375C22.8248 0 24 1.17525 24 2.625V15.375C24 16.8248 22.8248 18 21.375 18H2.625C1.17525 18 0 16.8248 0 15.375V2.625ZM2.625 1.5C2.00368 1.5 1.5 2.00368 1.5 2.625V15.375C1.5 15.9963 2.00368 16.5 2.625 16.5H21.375C21.9963 16.5 22.5 15.9963 22.5 15.375V2.625C22.5 2.00368 21.9963 1.5 21.375 1.5H2.625Z" fill="#1B3468"/>
</svg>
