<svg width="18" height="18" viewBox="0 0 18 18" fill="none" xmlns="http://www.w3.org/2000/svg">
<path d="M0 1.43103C0.104608 1.21497 0.28776 1.09583 0.498386 0.993617C1.10948 0.697893 1.716 0.393358 2.32005 0.0835359C2.53736 -0.0281975 2.73672 -0.0274925 2.95439 0.0835359C3.60035 0.413801 4.25019 0.73737 4.90144 1.05706C5.16278 1.18536 5.27972 1.38274 5.2762 1.67389C5.2688 2.30128 5.26633 2.92868 5.2769 3.55573C5.28218 3.86908 5.15926 4.07492 4.87678 4.21062C4.34916 4.4637 3.83 4.73369 3.30449 4.99099C3.20376 5.04034 3.15797 5.09356 3.16079 5.21446C3.1703 5.61275 3.16854 6.01175 3.16149 6.41039C3.15973 6.51931 3.19213 6.57606 3.29111 6.62434C3.82225 6.88341 4.34705 7.15587 4.87925 7.41247C5.15363 7.54465 5.28113 7.74379 5.27655 8.05115C5.26704 8.68419 5.26845 9.31758 5.27584 9.95061C5.27937 10.2425 5.15961 10.4384 4.89862 10.5657C4.3622 10.8276 3.83105 11.1 3.29498 11.3623C3.19883 11.4095 3.15903 11.4624 3.16114 11.5737C3.16889 11.978 3.16748 12.3827 3.16184 12.7873C3.16043 12.8895 3.19319 12.9424 3.28512 12.9872C3.82119 13.2497 4.35163 13.5233 4.88876 13.7841C5.15609 13.9138 5.28042 14.1108 5.27655 14.4108C5.2681 15.0498 5.26986 15.6888 5.27584 16.3279C5.27866 16.6123 5.15891 16.803 4.90531 16.9292C4.19419 17.2824 3.48659 17.6426 2.77758 18C2.68389 18 2.5902 18 2.49616 18C1.83047 17.6637 1.16689 17.3229 0.497329 16.9944C0.28776 16.8922 0.104608 16.7738 0 16.558C0 15.7607 0 14.9631 0 14.1658C0.104608 13.9498 0.287408 13.8296 0.498386 13.7284C0.994306 13.4908 1.48213 13.2367 1.97628 12.9946C2.07068 12.9484 2.11506 12.898 2.11294 12.7845C2.10484 12.3802 2.10484 11.9756 2.11294 11.5713C2.11506 11.4578 2.07103 11.4077 1.97628 11.3612C1.48248 11.1191 0.994658 10.8649 0.498386 10.6274C0.287408 10.5269 0.104608 10.4067 0 10.1906C0 9.39336 0 8.59572 0 7.79843C0.104608 7.58236 0.287408 7.46217 0.498386 7.36101C0.994306 7.12344 1.48213 6.86931 1.97628 6.62716C2.07068 6.58099 2.11506 6.53059 2.11294 6.41709C2.10484 6.01281 2.10484 5.60817 2.11294 5.20389C2.11506 5.09039 2.07103 5.04034 1.97628 4.99381C1.48248 4.75166 0.994658 4.49753 0.498386 4.25997C0.287408 4.15951 0.104608 4.03932 0 3.82326C0 3.02597 0 2.22868 0 1.43103ZM3.1622 2.62732C3.1622 2.34006 2.92339 2.10108 2.63598 2.10073C2.34858 2.10073 2.11013 2.33935 2.11013 2.62697C2.11013 2.91458 2.34858 3.15356 2.63563 3.15356C2.92339 3.15356 3.1622 2.91494 3.1622 2.62732ZM3.1622 8.99965C3.16501 8.71238 2.92832 8.47129 2.64092 8.46847C2.35386 8.46565 2.11294 8.70216 2.11013 8.98978C2.10731 9.2774 2.34365 9.51849 2.63105 9.52095C2.91846 9.52377 3.15938 9.28726 3.1622 8.99965ZM3.1622 15.3674C3.16537 15.0801 2.92868 14.839 2.64127 14.8359C2.35421 14.8327 2.11294 15.0696 2.11013 15.3572C2.10731 15.6448 2.34329 15.8859 2.6307 15.8887C2.91811 15.8912 3.15938 15.6547 3.1622 15.3674Z" fill="#1B3468"/>
<path d="M12.1829 1.04465C13.8996 1.04465 15.6166 1.04465 17.3333 1.04465C17.3978 1.04465 17.4626 1.04183 17.5263 1.04888C17.7972 1.07884 18.0001 1.30442 18.0001 1.57195C18.0001 1.83877 17.7965 2.06541 17.526 2.09501C17.4622 2.10206 17.3971 2.09924 17.333 2.09924C13.8876 2.09924 10.4422 2.0996 6.99682 2.09924C6.57557 2.09924 6.32973 1.90468 6.33008 1.57124C6.33008 1.23745 6.57487 1.04395 6.99718 1.04395C8.72585 1.0443 10.4542 1.04465 12.1829 1.04465Z" fill="#1B3468"/>
<path d="M12.1829 7.41169C13.8996 7.41169 15.6166 7.41169 17.3333 7.41169C17.3978 7.41169 17.4626 7.40887 17.5263 7.41592C17.7972 7.44588 18.0001 7.67181 18.0001 7.93934C18.0001 8.20616 17.7965 8.4328 17.526 8.46241C17.4622 8.46946 17.3971 8.46664 17.333 8.46664C13.8876 8.46664 10.4422 8.46699 6.99682 8.46664C6.57557 8.46664 6.32973 8.27172 6.33008 7.93863C6.33043 7.60484 6.57487 7.41134 6.99718 7.41134C8.72585 7.41134 10.4545 7.41169 12.1829 7.41169Z" fill="#1B3468"/>
<path d="M12.1652 14.8344C10.4426 14.8344 8.71986 14.8344 6.99718 14.8344C6.93272 14.8344 6.86791 14.8373 6.80416 14.8302C6.53401 14.8003 6.33008 14.574 6.33008 14.3072C6.33008 14.0396 6.5326 13.814 6.80381 13.7841C6.86756 13.777 6.93272 13.7799 6.99682 13.7799C10.4422 13.7799 13.8876 13.7795 17.333 13.7799C17.7553 13.7799 18.0001 13.9734 18.0001 14.3072C18.0001 14.6402 17.7546 14.8352 17.3333 14.8352C15.6106 14.8344 13.8879 14.8344 12.1652 14.8344Z" fill="#1B3468"/>
<path d="M9.50984 4.21037C8.6367 4.21037 7.76391 4.21284 6.89076 4.20931C6.48536 4.20755 6.22824 3.8512 6.36526 3.49415C6.44486 3.28725 6.63012 3.15895 6.8728 3.15648C7.25953 3.1526 7.64627 3.15507 8.033 3.15507C9.3922 3.15507 10.7518 3.15366 12.111 3.15578C12.5301 3.15648 12.7936 3.50789 12.6541 3.87129C12.5713 4.087 12.3797 4.20931 12.1113 4.21002C11.2442 4.21107 10.377 4.21037 9.50984 4.21037Z" fill="#1B3468"/>
<path d="M9.50996 9.52232C10.3831 9.52232 11.2559 9.51986 12.129 9.52338C12.5344 9.52514 12.7916 9.88149 12.6545 10.2382C12.5753 10.444 12.3883 10.5737 12.147 10.5759C11.7603 10.5797 11.3735 10.5773 10.9868 10.5773C9.6276 10.5773 8.26805 10.5787 6.90885 10.5766C6.48971 10.5759 6.22625 10.2241 6.36573 9.86105C6.44885 9.64463 6.6394 9.52303 6.9085 9.52268C7.77565 9.52162 8.64281 9.52232 9.50996 9.52232Z" fill="#1B3468"/>
<path d="M9.49691 16.9458C8.62975 16.9458 7.76259 16.9483 6.89544 16.9448C6.48863 16.943 6.22728 16.5898 6.36535 16.2338C6.45024 16.0149 6.61895 15.9 6.85141 15.8926C7.07965 15.8852 7.30824 15.8905 7.53682 15.8902C9.06016 15.8902 10.5835 15.8891 12.1072 15.8909C12.5281 15.8912 12.7926 16.2388 12.6559 16.6022C12.5742 16.8196 12.383 16.9444 12.116 16.9448C11.2428 16.9469 10.3697 16.9458 9.49691 16.9458Z" fill="#1B3468"/>
</svg>
