<svg width="21" height="18" viewBox="0 0 21 18" fill="none" xmlns="http://www.w3.org/2000/svg">
<path d="M19.0312 0H1.96875C0.881426 0 0 0.863437 0 1.92857V16.0714C0 17.1366 0.881426 18 1.96875 18H19.0312C20.1186 18 21 17.1366 21 16.0714V1.92857C21 0.863437 20.1186 0 19.0312 0ZM18.7852 16.0714H2.21484C2.14958 16.0714 2.08698 16.046 2.04083 16.0008C1.99468 15.9556 1.96875 15.8943 1.96875 15.8304V2.16964C1.96875 2.10571 1.99468 2.04439 2.04083 1.99918C2.08698 1.95397 2.14958 1.92857 2.21484 1.92857H18.7852C18.8504 1.92857 18.913 1.95397 18.9592 1.99918C19.0053 2.04439 19.0312 2.10571 19.0312 2.16964V15.8304C19.0312 15.8943 19.0053 15.9556 18.9592 16.0008C18.913 16.046 18.8504 16.0714 18.7852 16.0714ZM17.0625 12.375V13.3393C17.0625 13.6055 16.8421 13.8214 16.5703 13.8214H8.36719C8.09538 13.8214 7.875 13.6055 7.875 13.3393V12.375C7.875 12.1087 8.09538 11.8929 8.36719 11.8929H16.5703C16.8421 11.8929 17.0625 12.1087 17.0625 12.375ZM17.0625 8.51786V9.48214C17.0625 9.74841 16.8421 9.96429 16.5703 9.96429H8.36719C8.09538 9.96429 7.875 9.74841 7.875 9.48214V8.51786C7.875 8.25159 8.09538 8.03571 8.36719 8.03571H16.5703C16.8421 8.03571 17.0625 8.25159 17.0625 8.51786ZM17.0625 4.66071V5.625C17.0625 5.89126 16.8421 6.10714 16.5703 6.10714H8.36719C8.09538 6.10714 7.875 5.89126 7.875 5.625V4.66071C7.875 4.39445 8.09538 4.17857 8.36719 4.17857H16.5703C16.8421 4.17857 17.0625 4.39445 17.0625 4.66071ZM6.72656 5.14286C6.72656 5.94169 6.06547 6.58929 5.25 6.58929C4.43453 6.58929 3.77344 5.94169 3.77344 5.14286C3.77344 4.34403 4.43453 3.69643 5.25 3.69643C6.06547 3.69643 6.72656 4.34403 6.72656 5.14286ZM6.72656 9C6.72656 9.79883 6.06547 10.4464 5.25 10.4464C4.43453 10.4464 3.77344 9.79883 3.77344 9C3.77344 8.20117 4.43453 7.55357 5.25 7.55357C6.06547 7.55357 6.72656 8.20117 6.72656 9ZM6.72656 12.8571C6.72656 13.656 6.06547 14.3036 5.25 14.3036C4.43453 14.3036 3.77344 13.656 3.77344 12.8571C3.77344 12.0583 4.43453 11.4107 5.25 11.4107C6.06547 11.4107 6.72656 12.0583 6.72656 12.8571Z" fill="#1B3468"/>
</svg>
