<svg width="344" height="369" viewBox="0 0 344 369" fill="none" xmlns="http://www.w3.org/2000/svg">
<path d="M141.35 316.66L90.9482 368.999C94.6772 368.946 98.3804 367.951 101.682 366.019L225.247 293.491C228.333 291.692 229.888 288.632 230.049 285.492H230.076V282.102L141.35 316.66Z" fill="#BEC2CC"/>
<path d="M3.57812 313.574V317.741H3.68577C3.36445 320.48 4.51799 323.324 7.22832 324.882L80.0008 366.18C83.4084 368.112 87.1919 369.052 90.9482 368.999L141.35 316.659L3.57812 313.574Z" fill="#9CA1B7"/>
<path d="M101.683 360.919L225.236 288.396C231.784 284.553 231.718 275.061 225.12 271.307L153.612 230.722C148.548 227.841 142.33 227.884 137.305 230.833L7.14629 307.233C2.34417 310.052 2.39236 317.013 7.23144 319.766L79.9975 361.066C86.7324 364.899 94.9999 364.843 101.683 360.919Z" fill="url(#paint0_linear_2396_123865)"/>
<g opacity="0.15">
<path opacity="0.037" d="M57.5758 337.434C78.7113 337.434 95.845 329.606 95.845 319.951C95.845 310.295 78.7113 302.468 57.5758 302.468C36.4403 302.468 19.3066 310.295 19.3066 319.951C19.3066 329.606 36.4403 337.434 57.5758 337.434Z" fill="#20233A"/>
<path opacity="0.0741" d="M57.5758 337.104C78.3137 337.104 95.1252 329.425 95.1252 319.951C95.1252 310.477 78.3137 302.798 57.5758 302.798C36.8378 302.798 20.0264 310.477 20.0264 319.951C20.0264 329.425 36.8378 337.104 57.5758 337.104Z" fill="#20233A"/>
<path opacity="0.1111" d="M57.5754 336.776C77.9168 336.776 94.4067 329.243 94.4067 319.951C94.4067 310.658 77.9168 303.125 57.5754 303.125C37.2341 303.125 20.7441 310.658 20.7441 319.951C20.7441 329.243 37.2341 336.776 57.5754 336.776Z" fill="#20233A"/>
<path opacity="0.1481" d="M57.5754 336.447C77.5192 336.447 93.6869 329.061 93.6869 319.951C93.6869 310.84 77.5192 303.455 57.5754 303.455C37.6315 303.455 21.4639 310.84 21.4639 319.951C21.4639 329.061 37.6315 336.447 57.5754 336.447Z" fill="#20233A"/>
<path opacity="0.1852" d="M57.5753 336.119C77.1217 336.119 92.9671 328.88 92.9671 319.951C92.9671 311.021 77.1217 303.783 57.5753 303.783C38.029 303.783 22.1836 311.021 22.1836 319.951C22.1836 328.88 38.029 336.119 57.5753 336.119Z" fill="#20233A"/>
<path opacity="0.2222" d="M57.5753 335.79C76.7241 335.79 92.2473 328.698 92.2473 319.951C92.2473 311.203 76.7241 304.112 57.5753 304.112C38.4265 304.112 22.9033 311.203 22.9033 319.951C22.9033 328.698 38.4265 335.79 57.5753 335.79Z" fill="#20233A"/>
<path opacity="0.2593" d="M57.5753 335.462C76.3266 335.462 91.5275 328.517 91.5275 319.951C91.5275 311.384 76.3266 304.44 57.5753 304.44C38.824 304.44 23.623 311.384 23.623 319.951C23.623 328.517 38.824 335.462 57.5753 335.462Z" fill="#20233A"/>
<path opacity="0.2963" d="M57.5762 335.132C75.93 335.132 90.8087 328.335 90.8087 319.951C90.8087 311.566 75.93 304.77 57.5762 304.77C39.2224 304.77 24.3438 311.566 24.3438 319.951C24.3438 328.335 39.2224 335.132 57.5762 335.132Z" fill="#20233A"/>
<path opacity="0.3333" d="M57.5762 334.804C75.5325 334.804 90.0889 328.154 90.0889 319.951C90.0889 311.748 75.5325 305.097 57.5762 305.097C39.6199 305.097 25.0635 311.748 25.0635 319.951C25.0635 328.154 39.6199 334.804 57.5762 334.804Z" fill="#20233A"/>
<path opacity="0.3704" d="M57.5762 334.475C75.135 334.475 89.3692 327.972 89.3692 319.951C89.3692 311.93 75.135 305.427 57.5762 305.427C40.0174 305.427 25.7832 311.93 25.7832 319.951C25.7832 327.972 40.0174 334.475 57.5762 334.475Z" fill="#20233A"/>
<path opacity="0.4074" d="M57.5761 334.147C74.7374 334.147 88.6494 327.791 88.6494 319.951C88.6494 312.11 74.7374 305.755 57.5761 305.755C40.4149 305.755 26.5029 312.11 26.5029 319.951C26.5029 327.791 40.4149 334.147 57.5761 334.147Z" fill="#20233A"/>
<path opacity="0.4444" d="M57.5758 333.817C74.3404 333.817 87.9308 327.609 87.9308 319.951C87.9308 312.292 74.3404 306.084 57.5758 306.084C40.8111 306.084 27.2207 312.292 27.2207 319.951C27.2207 327.609 40.8111 333.817 57.5758 333.817Z" fill="#20233A"/>
<path opacity="0.4815" d="M57.5757 333.488C73.9429 333.488 87.2111 327.427 87.2111 319.951C87.2111 312.475 73.9429 306.414 57.5757 306.414C41.2086 306.414 27.9404 312.475 27.9404 319.951C27.9404 327.427 41.2086 333.488 57.5757 333.488Z" fill="#20233A"/>
<path opacity="0.5185" d="M57.5757 333.16C73.5453 333.16 86.4913 327.246 86.4913 319.951C86.4913 312.655 73.5453 306.741 57.5757 306.741C41.6061 306.741 28.6602 312.655 28.6602 319.951C28.6602 327.246 41.6061 333.16 57.5757 333.16Z" fill="#20233A"/>
<path opacity="0.5556" d="M57.5757 332.831C73.1478 332.831 85.7715 327.064 85.7715 319.951C85.7715 312.837 73.1478 307.071 57.5757 307.071C42.0036 307.071 29.3799 312.837 29.3799 319.951C29.3799 327.064 42.0036 332.831 57.5757 332.831Z" fill="#20233A"/>
<path opacity="0.5926" d="M57.5756 332.503C72.7502 332.503 85.0517 326.883 85.0517 319.951C85.0517 313.019 72.7502 307.399 57.5756 307.399C42.4011 307.399 30.0996 313.019 30.0996 319.951C30.0996 326.883 42.4011 332.503 57.5756 332.503Z" fill="#20233A"/>
<path opacity="0.6296" d="M57.5756 332.173C72.3527 332.173 84.3319 326.701 84.3319 319.951C84.3319 313.2 72.3527 307.728 57.5756 307.728C42.7985 307.728 30.8193 313.2 30.8193 319.951C30.8193 326.701 42.7985 332.173 57.5756 332.173Z" fill="#20233A"/>
<path opacity="0.6667" d="M57.5756 331.846C71.9552 331.846 83.6121 326.52 83.6121 319.951C83.6121 313.382 71.9552 308.056 57.5756 308.056C43.196 308.056 31.5391 313.382 31.5391 319.951C31.5391 326.52 43.196 331.846 57.5756 331.846Z" fill="#20233A"/>
<path opacity="0.7037" d="M57.5756 331.516C71.5576 331.516 82.8923 326.338 82.8923 319.951C82.8923 313.564 71.5576 308.386 57.5756 308.386C43.5935 308.386 32.2588 313.564 32.2588 319.951C32.2588 326.338 43.5935 331.516 57.5756 331.516Z" fill="#20233A"/>
<path opacity="0.7407" d="M57.5755 331.188C71.1601 331.188 82.1726 326.157 82.1726 319.951C82.1726 313.745 71.1601 308.714 57.5755 308.714C43.991 308.714 32.9785 313.745 32.9785 319.951C32.9785 326.157 43.991 331.188 57.5755 331.188Z" fill="#20233A"/>
<path opacity="0.7778" d="M57.5755 330.859C70.7626 330.859 81.4528 325.975 81.4528 319.951C81.4528 313.927 70.7626 309.043 57.5755 309.043C44.3885 309.043 33.6982 313.927 33.6982 319.951C33.6982 325.975 44.3885 330.859 57.5755 330.859Z" fill="#20233A"/>
<path opacity="0.8148" d="M57.5761 330.531C70.3665 330.531 80.7352 325.794 80.7352 319.951C80.7352 314.108 70.3665 309.371 57.5761 309.371C44.7857 309.371 34.417 314.108 34.417 319.951C34.417 325.794 44.7857 330.531 57.5761 330.531Z" fill="#20233A"/>
<path opacity="0.8519" d="M57.5761 330.201C69.969 330.201 80.0154 325.612 80.0154 319.951C80.0154 314.29 69.969 309.7 57.5761 309.7C45.1832 309.7 35.1367 314.29 35.1367 319.951C35.1367 325.612 45.1832 330.201 57.5761 330.201Z" fill="#20233A"/>
<path opacity="0.8889" d="M57.576 329.874C69.5715 329.874 79.2957 325.431 79.2957 319.951C79.2957 314.471 69.5715 310.028 57.576 310.028C45.5806 310.028 35.8564 314.471 35.8564 319.951C35.8564 325.431 45.5806 329.874 57.576 329.874Z" fill="#20233A"/>
<path opacity="0.9259" d="M57.576 329.544C69.1739 329.544 78.5759 325.249 78.5759 319.951C78.5759 314.653 69.1739 310.358 57.576 310.358C45.9781 310.358 36.5762 314.653 36.5762 319.951C36.5762 325.249 45.9781 329.544 57.576 329.544Z" fill="#20233A"/>
<path opacity="0.963" d="M57.576 329.216C68.7764 329.216 77.8561 325.068 77.8561 319.951C77.8561 314.834 68.7764 310.685 57.576 310.685C46.3756 310.685 37.2959 314.834 37.2959 319.951C37.2959 325.068 46.3756 329.216 57.576 329.216Z" fill="#20233A"/>
<path d="M57.576 328.887C68.3788 328.887 77.1363 324.886 77.1363 319.951C77.1363 315.016 68.3788 311.015 57.576 311.015C46.7731 311.015 38.0156 315.016 38.0156 319.951C38.0156 324.886 46.7731 328.887 57.576 328.887Z" fill="#20233A"/>
</g>
<g opacity="0.15">
<path opacity="0.037" d="M135.261 323.525C156.397 323.525 173.531 315.698 173.531 306.042C173.531 296.387 156.397 288.559 135.261 288.559C114.126 288.559 96.9922 296.387 96.9922 306.042C96.9922 315.698 114.126 323.525 135.261 323.525Z" fill="#20233A"/>
<path opacity="0.0741" d="M135.261 323.196C155.999 323.196 172.811 315.516 172.811 306.042C172.811 296.569 155.999 288.889 135.261 288.889C114.523 288.889 97.7119 296.569 97.7119 306.042C97.7119 315.516 114.523 323.196 135.261 323.196Z" fill="#20233A"/>
<path opacity="0.1111" d="M135.261 322.868C155.602 322.868 172.092 315.335 172.092 306.042C172.092 296.75 155.602 289.217 135.261 289.217C114.92 289.217 98.4297 296.75 98.4297 306.042C98.4297 315.335 114.92 322.868 135.261 322.868Z" fill="#20233A"/>
<path opacity="0.1481" d="M135.261 322.538C155.205 322.538 171.372 315.153 171.372 306.042C171.372 296.932 155.205 289.546 135.261 289.546C115.317 289.546 99.1494 296.932 99.1494 306.042C99.1494 315.153 115.317 322.538 135.261 322.538Z" fill="#20233A"/>
<path opacity="0.1852" d="M135.261 322.21C154.807 322.21 170.653 314.972 170.653 306.042C170.653 297.113 154.807 289.874 135.261 289.874C115.715 289.874 99.8691 297.113 99.8691 306.042C99.8691 314.972 115.715 322.21 135.261 322.21Z" fill="#20233A"/>
<path opacity="0.2222" d="M135.261 321.881C154.41 321.881 169.933 314.79 169.933 306.042C169.933 297.295 154.41 290.204 135.261 290.204C116.112 290.204 100.589 297.295 100.589 306.042C100.589 314.79 116.112 321.881 135.261 321.881Z" fill="#20233A"/>
<path opacity="0.2593" d="M135.262 321.553C154.013 321.553 169.214 314.609 169.214 306.042C169.214 297.476 154.013 290.531 135.262 290.531C116.511 290.531 101.31 297.476 101.31 306.042C101.31 314.609 116.511 321.553 135.262 321.553Z" fill="#20233A"/>
<path opacity="0.2963" d="M135.262 321.224C153.616 321.224 168.494 314.427 168.494 306.042C168.494 297.658 153.616 290.861 135.262 290.861C116.908 290.861 102.029 297.658 102.029 306.042C102.029 314.427 116.908 321.224 135.262 321.224Z" fill="#20233A"/>
<path opacity="0.3333" d="M135.262 320.896C153.218 320.896 167.774 314.246 167.774 306.042C167.774 297.839 153.218 291.189 135.262 291.189C117.305 291.189 102.749 297.839 102.749 306.042C102.749 314.246 117.305 320.896 135.262 320.896Z" fill="#20233A"/>
<path opacity="0.3704" d="M135.262 320.566C152.82 320.566 167.055 314.064 167.055 306.042C167.055 298.021 152.82 291.518 135.262 291.518C117.703 291.518 103.469 298.021 103.469 306.042C103.469 314.064 117.703 320.566 135.262 320.566Z" fill="#20233A"/>
<path opacity="0.4074" d="M135.262 320.239C152.423 320.239 166.335 313.883 166.335 306.042C166.335 298.202 152.423 291.846 135.262 291.846C118.1 291.846 104.188 298.202 104.188 306.042C104.188 313.883 118.1 320.239 135.262 320.239Z" fill="#20233A"/>
<path opacity="0.4444" d="M135.261 319.909C152.026 319.909 165.616 313.701 165.616 306.042C165.616 298.384 152.026 292.176 135.261 292.176C118.497 292.176 104.906 298.384 104.906 306.042C104.906 313.701 118.497 319.909 135.261 319.909Z" fill="#20233A"/>
<path opacity="0.4815" d="M135.261 319.58C151.628 319.58 164.897 313.519 164.897 306.042C164.897 298.566 151.628 292.505 135.261 292.505C118.894 292.505 105.626 298.566 105.626 306.042C105.626 313.519 118.894 319.58 135.261 319.58Z" fill="#20233A"/>
<path opacity="0.5185" d="M135.261 319.252C151.231 319.252 164.177 313.338 164.177 306.042C164.177 298.747 151.231 292.833 135.261 292.833C119.292 292.833 106.346 298.747 106.346 306.042C106.346 313.338 119.292 319.252 135.261 319.252Z" fill="#20233A"/>
<path opacity="0.5556" d="M135.261 318.922C150.833 318.922 163.457 313.156 163.457 306.042C163.457 298.929 150.833 293.162 135.261 293.162C119.689 293.162 107.065 298.929 107.065 306.042C107.065 313.156 119.689 318.922 135.261 318.922Z" fill="#20233A"/>
<path opacity="0.5926" d="M135.261 318.594C150.436 318.594 162.737 312.975 162.737 306.042C162.737 299.11 150.436 293.49 135.261 293.49C120.087 293.49 107.785 299.11 107.785 306.042C107.785 312.975 120.087 318.594 135.261 318.594Z" fill="#20233A"/>
<path opacity="0.6296" d="M135.261 318.265C150.038 318.265 162.017 312.793 162.017 306.042C162.017 299.292 150.038 293.82 135.261 293.82C120.484 293.82 108.505 299.292 108.505 306.042C108.505 312.793 120.484 318.265 135.261 318.265Z" fill="#20233A"/>
<path opacity="0.6667" d="M135.261 317.937C149.641 317.937 161.298 312.612 161.298 306.042C161.298 299.473 149.641 294.148 135.261 294.148C120.882 294.148 109.225 299.473 109.225 306.042C109.225 312.612 120.882 317.937 135.261 317.937Z" fill="#20233A"/>
<path opacity="0.7037" d="M135.261 317.607C149.243 317.607 160.578 312.43 160.578 306.042C160.578 299.655 149.243 294.477 135.261 294.477C121.279 294.477 109.944 299.655 109.944 306.042C109.944 312.43 121.279 317.607 135.261 317.607Z" fill="#20233A"/>
<path opacity="0.7407" d="M135.261 317.28C148.846 317.28 159.858 312.249 159.858 306.042C159.858 299.836 148.846 294.805 135.261 294.805C121.677 294.805 110.664 299.836 110.664 306.042C110.664 312.249 121.677 317.28 135.261 317.28Z" fill="#20233A"/>
<path opacity="0.7778" d="M135.261 316.95C148.448 316.95 159.138 312.067 159.138 306.042C159.138 300.018 148.448 295.135 135.261 295.135C122.074 295.135 111.384 300.018 111.384 306.042C111.384 312.067 122.074 316.95 135.261 316.95Z" fill="#20233A"/>
<path opacity="0.8148" d="M135.262 316.622C148.052 316.622 158.421 311.885 158.421 306.042C158.421 300.199 148.052 295.462 135.262 295.462C122.471 295.462 112.103 300.199 112.103 306.042C112.103 311.885 122.471 316.622 135.262 316.622Z" fill="#20233A"/>
<path opacity="0.8519" d="M135.262 316.293C147.655 316.293 157.701 311.704 157.701 306.042C157.701 300.381 147.655 295.792 135.262 295.792C122.869 295.792 112.822 300.381 112.822 306.042C112.822 311.704 122.869 316.293 135.262 316.293Z" fill="#20233A"/>
<path opacity="0.8889" d="M135.262 315.965C147.257 315.965 156.981 311.523 156.981 306.042C156.981 300.562 147.257 296.12 135.262 296.12C123.266 296.12 113.542 300.562 113.542 306.042C113.542 311.523 123.266 315.965 135.262 315.965Z" fill="#20233A"/>
<path opacity="0.9259" d="M135.262 315.636C146.859 315.636 156.261 311.341 156.261 306.042C156.261 300.744 146.859 296.449 135.262 296.449C123.664 296.449 114.262 300.744 114.262 306.042C114.262 311.341 123.664 315.636 135.262 315.636Z" fill="#20233A"/>
<path opacity="0.963" d="M135.262 315.306C146.462 315.306 155.542 311.159 155.542 306.042C155.542 300.926 146.462 296.779 135.262 296.779C124.061 296.779 114.981 300.926 114.981 306.042C114.981 311.159 124.061 315.306 135.262 315.306Z" fill="#20233A"/>
<path d="M135.262 314.978C146.064 314.978 154.822 310.978 154.822 306.042C154.822 301.107 146.064 297.107 135.262 297.107C124.459 297.107 115.701 301.107 115.701 306.042C115.701 310.978 124.459 314.978 135.262 314.978Z" fill="#20233A"/>
</g>
<g opacity="0.15">
<path opacity="0.037" d="M172.348 287.68C193.484 287.68 210.617 279.853 210.617 270.198C210.617 260.542 193.484 252.715 172.348 252.715C151.213 252.715 134.079 260.542 134.079 270.198C134.079 279.853 151.213 287.68 172.348 287.68Z" fill="#20233A"/>
<path opacity="0.0741" d="M172.348 287.351C193.086 287.351 209.898 279.671 209.898 270.198C209.898 260.724 193.086 253.044 172.348 253.044C151.61 253.044 134.799 260.724 134.799 270.198C134.799 279.671 151.61 287.351 172.348 287.351Z" fill="#20233A"/>
<path opacity="0.1111" d="M172.348 287.023C192.689 287.023 209.179 279.49 209.179 270.198C209.179 260.905 192.689 253.372 172.348 253.372C152.007 253.372 135.517 260.905 135.517 270.198C135.517 279.49 152.007 287.023 172.348 287.023Z" fill="#20233A"/>
<path opacity="0.1481" d="M172.348 286.694C192.292 286.694 208.459 279.308 208.459 270.198C208.459 261.087 192.292 253.702 172.348 253.702C152.404 253.702 136.236 261.087 136.236 270.198C136.236 279.308 152.404 286.694 172.348 286.694Z" fill="#20233A"/>
<path opacity="0.1852" d="M172.348 286.366C191.894 286.366 207.74 279.127 207.74 270.198C207.74 261.268 191.894 254.03 172.348 254.03C152.801 254.03 136.956 261.268 136.956 270.198C136.956 279.127 152.801 286.366 172.348 286.366Z" fill="#20233A"/>
<path opacity="0.2222" d="M172.349 286.036C191.498 286.036 207.021 278.945 207.021 270.198C207.021 261.45 191.498 254.359 172.349 254.359C153.2 254.359 137.677 261.45 137.677 270.198C137.677 278.945 153.2 286.036 172.349 286.036Z" fill="#20233A"/>
<path opacity="0.2593" d="M172.349 285.708C191.1 285.708 206.301 278.764 206.301 270.198C206.301 261.631 191.1 254.687 172.349 254.687C153.597 254.687 138.396 261.631 138.396 270.198C138.396 278.764 153.597 285.708 172.349 285.708Z" fill="#20233A"/>
<path opacity="0.2963" d="M172.349 285.379C190.702 285.379 205.581 278.582 205.581 270.198C205.581 261.813 190.702 255.016 172.349 255.016C153.995 255.016 139.116 261.813 139.116 270.198C139.116 278.582 153.995 285.379 172.349 285.379Z" fill="#20233A"/>
<path opacity="0.3333" d="M172.349 285.051C190.305 285.051 204.861 278.401 204.861 270.198C204.861 261.994 190.305 255.344 172.349 255.344C154.392 255.344 139.836 261.994 139.836 270.198C139.836 278.401 154.392 285.051 172.349 285.051Z" fill="#20233A"/>
<path opacity="0.3704" d="M172.349 284.722C189.907 284.722 204.142 278.219 204.142 270.198C204.142 262.176 189.907 255.674 172.349 255.674C154.79 255.674 140.556 262.176 140.556 270.198C140.556 278.219 154.79 284.722 172.349 284.722Z" fill="#20233A"/>
<path opacity="0.4074" d="M172.349 284.394C189.51 284.394 203.422 278.038 203.422 270.198C203.422 262.357 189.51 256.001 172.349 256.001C155.187 256.001 141.275 262.357 141.275 270.198C141.275 278.038 155.187 284.394 172.349 284.394Z" fill="#20233A"/>
<path opacity="0.4444" d="M172.348 284.064C189.113 284.064 202.703 277.856 202.703 270.198C202.703 262.539 189.113 256.331 172.348 256.331C155.584 256.331 141.993 262.539 141.993 270.198C141.993 277.856 155.584 284.064 172.348 284.064Z" fill="#20233A"/>
<path opacity="0.4815" d="M172.348 283.735C188.715 283.735 201.984 277.674 201.984 270.198C201.984 262.721 188.715 256.66 172.348 256.66C155.981 256.66 142.713 262.721 142.713 270.198C142.713 277.674 155.981 283.735 172.348 283.735Z" fill="#20233A"/>
<path opacity="0.5185" d="M172.348 283.407C188.318 283.407 201.264 277.493 201.264 270.198C201.264 262.902 188.318 256.988 172.348 256.988C156.379 256.988 143.433 262.902 143.433 270.198C143.433 277.493 156.379 283.407 172.348 283.407Z" fill="#20233A"/>
<path opacity="0.5556" d="M172.348 283.078C187.92 283.078 200.544 277.311 200.544 270.198C200.544 263.084 187.92 257.318 172.348 257.318C156.776 257.318 144.152 263.084 144.152 270.198C144.152 277.311 156.776 283.078 172.348 283.078Z" fill="#20233A"/>
<path opacity="0.5926" d="M172.348 282.75C187.523 282.75 199.824 277.13 199.824 270.198C199.824 263.265 187.523 257.646 172.348 257.646C157.174 257.646 144.872 263.265 144.872 270.198C144.872 277.13 157.174 282.75 172.348 282.75Z" fill="#20233A"/>
<path opacity="0.6296" d="M172.348 282.42C187.125 282.42 199.104 276.948 199.104 270.198C199.104 263.447 187.125 257.975 172.348 257.975C157.571 257.975 145.592 263.447 145.592 270.198C145.592 276.948 157.571 282.42 172.348 282.42Z" fill="#20233A"/>
<path opacity="0.6667" d="M172.348 282.092C186.728 282.092 198.385 276.767 198.385 270.198C198.385 263.628 186.728 258.303 172.348 258.303C157.968 258.303 146.312 263.628 146.312 270.198C146.312 276.767 157.968 282.092 172.348 282.092Z" fill="#20233A"/>
<path opacity="0.7037" d="M172.348 281.763C186.33 281.763 197.665 276.585 197.665 270.198C197.665 263.81 186.33 258.632 172.348 258.632C158.366 258.632 147.031 263.81 147.031 270.198C147.031 276.585 158.366 281.763 172.348 281.763Z" fill="#20233A"/>
<path opacity="0.7407" d="M172.348 281.435C185.933 281.435 196.945 276.404 196.945 270.198C196.945 263.991 185.933 258.96 172.348 258.96C158.763 258.96 147.751 263.991 147.751 270.198C147.751 276.404 158.763 281.435 172.348 281.435Z" fill="#20233A"/>
<path opacity="0.7778" d="M172.348 281.106C185.535 281.106 196.225 276.222 196.225 270.198C196.225 264.173 185.535 259.29 172.348 259.29C159.161 259.29 148.471 264.173 148.471 270.198C148.471 276.222 159.161 281.106 172.348 281.106Z" fill="#20233A"/>
<path opacity="0.8148" d="M172.349 280.778C185.139 280.778 195.508 276.041 195.508 270.198C195.508 264.354 185.139 259.618 172.349 259.618C159.558 259.618 149.189 264.354 149.189 270.198C149.189 276.041 159.558 280.778 172.349 280.778Z" fill="#20233A"/>
<path opacity="0.8519" d="M172.349 280.448C184.741 280.448 194.788 275.859 194.788 270.198C194.788 264.536 184.741 259.947 172.349 259.947C159.956 259.947 149.909 264.536 149.909 270.198C149.909 275.859 159.956 280.448 172.349 280.448Z" fill="#20233A"/>
<path opacity="0.8889" d="M172.349 280.12C184.344 280.12 194.068 275.678 194.068 270.198C194.068 264.717 184.344 260.275 172.349 260.275C160.353 260.275 150.629 264.717 150.629 270.198C150.629 275.678 160.353 280.12 172.349 280.12Z" fill="#20233A"/>
<path opacity="0.9259" d="M172.348 279.791C183.946 279.791 193.348 275.496 193.348 270.198C193.348 264.899 183.946 260.604 172.348 260.604C160.751 260.604 151.349 264.899 151.349 270.198C151.349 275.496 160.751 279.791 172.348 279.791Z" fill="#20233A"/>
<path opacity="0.963" d="M172.348 279.461C183.549 279.461 192.629 275.314 192.629 270.198C192.629 265.081 183.549 260.934 172.348 260.934C161.148 260.934 152.068 265.081 152.068 270.198C152.068 275.314 161.148 279.461 172.348 279.461Z" fill="#20233A"/>
<path d="M172.348 279.133C183.151 279.133 191.909 275.133 191.909 270.198C191.909 265.262 183.151 261.262 172.348 261.262C161.546 261.262 152.788 265.262 152.788 270.198C152.788 275.133 161.546 279.133 172.348 279.133Z" fill="#20233A"/>
</g>
<path d="M159.68 265.9L145.751 256.728L148.887 252.414C148.887 252.414 151.736 251.826 152.272 252.414C152.807 253.002 161.878 259.219 161.878 259.219L159.68 265.9Z" fill="#6E7277"/>
<path d="M150.072 268.296C150.072 268.296 148.918 273.005 151.948 274.015C153.722 274.606 155.373 273.476 155.373 273.476L162.56 276.805L149.027 289.247C149.027 289.247 148.307 292.417 151.296 292.68C154.284 292.944 155.778 289.866 155.778 289.866C155.778 289.866 166.791 280.458 168.713 280.458C170.634 280.458 179.512 288.987 179.512 288.987C179.512 288.987 179.864 291.976 183.468 293.121C187.071 294.263 188.08 290.334 187.594 289.164C187.107 287.994 175.469 276.678 175.469 276.678L184.61 271.845C184.61 271.845 186.808 272.194 189.181 270.787C191.554 269.381 190.002 266.08 190.002 266.08L169.931 272.721L160.349 272.215L156.737 272.448L150.072 268.296Z" fill="#9297A5"/>
<path d="M162.069 277.468L149.628 287.711C148.672 288.498 148.857 290.012 149.973 290.546L150.505 290.8C151.088 291.08 151.779 291.001 152.287 290.601L166.703 279.182C167.016 278.934 167.406 278.804 167.805 278.817L170.17 278.889C170.555 278.9 170.925 279.043 171.217 279.294L184.451 290.604C184.922 291.007 185.577 291.12 186.155 290.898L186.507 290.763C187.648 290.326 187.966 288.862 187.107 287.991L176.783 277.53C176.225 276.964 176.135 276.086 176.566 275.419L177.531 273.926C177.697 273.671 177.928 273.465 178.2 273.33L189.096 267.919C190.233 267.353 190.366 265.783 189.341 265.034L188.503 264.421C188.008 264.06 187.359 263.994 186.801 264.248L176.715 268.852C176.554 268.926 172.331 270.419 172.156 270.44L167.842 271.53C167.541 271.565 163.053 270.448 162.776 270.326L153.061 266.355C152.467 266.093 151.776 266.193 151.281 266.614L150.659 267.141C149.705 267.951 149.93 269.481 151.077 269.984L161.427 274.183C161.761 274.33 162.039 274.58 162.219 274.897L162.463 275.324C162.873 276.04 162.706 276.945 162.069 277.468Z" fill="url(#paint1_linear_2396_123865)"/>
<path d="M174.953 273.735V275.035C174.953 276.816 172.837 278.258 170.223 278.258C167.609 278.258 165.493 276.814 165.493 275.035V273.735H165.516C165.749 275.369 167.765 276.646 170.225 276.646C172.684 276.646 174.699 275.369 174.934 273.735H174.953Z" fill="url(#paint2_linear_2396_123865)"/>
<path d="M174.953 273.42C174.953 273.528 174.947 273.631 174.931 273.735C174.698 275.37 172.681 276.646 170.222 276.646C167.762 276.646 165.747 275.37 165.513 273.735C165.497 273.631 165.49 273.528 165.49 273.42C165.49 271.639 167.606 270.198 170.22 270.198C172.837 270.198 174.953 271.641 174.953 273.42Z" fill="#ADB1BC"/>
<path d="M172.602 264.095V273.2C172.602 274.095 171.537 274.821 170.223 274.821C168.907 274.821 167.844 274.095 167.844 273.2V264.095H167.855C167.972 264.918 168.986 265.559 170.223 265.559C171.46 265.559 172.474 264.918 172.591 264.095H172.602Z" fill="url(#paint3_linear_2396_123865)"/>
<path d="M172.602 263.936C172.602 263.991 172.599 264.042 172.591 264.095C172.474 264.918 171.46 265.559 170.223 265.559C168.986 265.559 167.972 264.918 167.855 264.095C167.847 264.042 167.844 263.991 167.844 263.936C167.844 263.041 168.909 262.314 170.223 262.314C171.539 262.316 172.602 263.041 172.602 263.936Z" fill="#ADB1BC"/>
<path d="M174.953 255.236V262.731C174.953 264.511 172.837 265.953 170.223 265.953C167.609 265.953 165.493 264.51 165.493 262.731V255.236H165.516C165.749 256.871 167.765 258.147 170.225 258.147C172.684 258.147 174.699 256.871 174.934 255.236H174.953Z" fill="url(#paint4_linear_2396_123865)"/>
<path d="M174.953 254.921C174.953 255.029 174.947 255.132 174.931 255.236C174.698 256.871 172.681 258.147 170.222 258.147C167.762 258.147 165.747 256.871 165.513 255.236C165.497 255.132 165.49 255.029 165.49 254.921C165.49 253.141 167.606 251.699 170.22 251.699C172.837 251.699 174.953 253.142 174.953 254.921Z" fill="#ADB1BC"/>
<path d="M168.932 191.194L193.166 204.611C194.477 205.347 195.179 206.83 194.916 208.31L189.29 241.082C188.613 244.878 186.43 248.237 183.236 250.396L159.682 265.898V259.217L168.932 191.194Z" fill="url(#paint5_linear_2396_123865)"/>
<path d="M168.205 194.916L187.977 206.007C189.288 206.743 189.99 208.227 189.727 209.707L184.822 237.226C184.146 241.023 181.962 244.382 178.768 246.54L159.68 259.217L135.755 245.285L168.205 194.916Z" fill="#2D2F4F"/>
<path d="M160.177 190.377C160.177 190.377 146.419 197.613 145.489 197.613C144.559 197.613 131.412 192.766 131.412 192.766C131.412 192.766 128.271 192.841 127.457 195.168C126.642 197.496 127.457 198.428 127.457 198.428C127.457 198.428 143.86 207.854 145.722 207.389C147.584 206.923 164.376 201.57 164.376 201.57L160.177 190.377Z" fill="url(#paint6_linear_2396_123865)"/>
<path d="M154.248 225.963C154.248 225.963 128.066 228.149 125.866 231.783C123.667 235.417 130.358 244.404 133.8 251.575C137.241 258.746 141.301 264.54 141.301 264.54C141.301 264.54 142.096 265.106 143.969 263.026C145.843 260.947 146.784 258.642 146.784 258.642L139.505 239.729L173.571 235.057C173.571 235.055 159.499 232 154.248 225.963Z" fill="#2D2F4F"/>
<path d="M142.006 264.54C142.006 264.54 141.842 267.727 139.244 270.797C136.645 273.867 136.12 274.867 138.382 276.13C140.644 277.393 143.155 276.604 145.724 272.395C148.293 268.185 153.024 265.754 152.173 263.155C151.321 260.556 146.569 259.116 146.569 259.116C146.569 259.116 144.58 262.58 142.006 264.54Z" fill="#2D2F4F"/>
<path d="M178.188 231.635C178.188 231.635 183.178 239.219 173.06 244.362C162.942 249.505 151.408 254.883 151.408 254.883C151.408 254.883 153.543 258.964 153.215 267.568C152.887 276.173 153.091 282.767 153.091 282.767C153.091 282.767 154.035 284.96 149.694 284.939C145.352 284.916 145.177 284.061 145.177 284.061C145.177 284.061 143.319 263.939 141.821 257.912C140.324 251.886 138.735 246.627 141.301 242.741C143.866 238.855 160.618 231.137 160.618 231.137C160.618 231.137 171.302 235.243 178.188 231.635Z" fill="#45496D"/>
<path d="M161.27 189.247C161.27 189.247 158.913 191.538 157.608 193.58C156.304 195.623 156.163 204.062 156.264 204.665C156.363 205.268 155.372 227.095 155.372 227.095C155.372 227.095 157.723 231.526 166.352 232.885C175.098 234.264 179.471 232.276 179.471 232.276C179.471 232.276 176.594 225.955 178.501 218.924C180.408 211.893 182.797 201.872 180.888 199.22C178.979 196.568 164.282 187.891 161.27 189.247Z" fill="#EFEFEF"/>
<path d="M129.232 205.679L155.452 220.65V243.178L129.232 228.207L128.191 206.19L129.232 205.679Z" fill="#C6C6C6"/>
<path d="M128.191 206.19L154.411 221.161V243.689L128.191 228.718V206.19Z" fill="#EFEFEF"/>
<path d="M154.411 243.689L170.691 232.834L154.411 223.295V243.689Z" fill="#B2B1B1"/>
<path d="M170.691 232.834V233.967L154.411 243.689V221.161L155.452 220.65V242.149L170.691 232.834Z" fill="#C6C6C6"/>
<path d="M155.452 229.891L161.879 233.832L155.452 237.556V229.891Z" fill="#827F7F"/>
<path d="M180.886 199.877C179.247 199.321 176.329 201.144 176.178 206.631C176.027 212.118 176.178 219.596 176.178 219.596L163.631 227.75C163.631 227.75 166.261 227.975 167.087 229.78C167.912 231.584 168.063 232.276 168.063 232.276C168.063 232.276 182.565 224.218 183.09 222.188C183.619 220.16 184.24 201.017 180.886 199.877Z" fill="url(#paint7_linear_2396_123865)"/>
<path d="M164.732 227.982C164.732 227.982 161.797 229.457 159.851 230.73C157.904 232.003 157.006 234.925 157.082 235.224C157.157 235.523 159.471 237.246 160.185 237.246C160.9 237.246 162.772 234.549 164.269 233.65C165.767 232.752 167.549 230.825 167.549 230.825C167.549 230.825 167.741 228.53 164.732 227.982Z" fill="#FFBDBD"/>
<path d="M162.1 177.682C162.1 177.682 160.963 182.239 160.984 183.87C161.005 185.501 161.97 190.323 162.862 191.027C163.753 191.731 165.116 191.631 165.116 191.631L164.615 194.505C164.615 194.505 164.237 196.522 167.776 197.329C171.314 198.135 173.833 194.344 173.833 194.344C173.833 194.344 173.21 191.416 173.819 188.613C174.428 185.81 175.066 178.721 172.219 177.13C169.372 175.535 162.1 177.682 162.1 177.682Z" fill="#FFBDBD"/>
<path d="M164.61 179.445C168.146 180.448 170.114 179.693 170.114 179.693C170.114 179.693 168.933 181.098 169.817 182.157C170.7 183.216 169.671 186.83 170.194 186.928C170.718 187.026 171.121 183.682 172.691 183.991C174.261 184.299 173.626 185.116 173.236 186.377C172.845 187.639 172.336 188.412 173.518 188.971C174.701 189.53 177.978 186.533 178.571 183.092C179.164 179.651 177.143 178.158 177.143 178.158C177.143 178.158 178.846 173.899 172.525 173.018C166.205 172.138 163.638 173.197 162.086 171.758C160.534 170.32 157.303 177.372 164.61 179.445Z" fill="#2D2F4F"/>
<path d="M165.019 191.567C165.019 191.567 167.266 191.853 168.431 190.816C169.596 189.781 169.945 189.506 169.945 189.506C169.945 189.506 169.328 190.879 168.031 192.259C166.735 193.64 167.072 197.134 167.072 197.134C167.072 197.134 164.412 196.612 164.612 194.939C164.815 193.267 165.019 191.567 165.019 191.567Z" fill="#EAA2A2"/>
<path d="M166.634 183.659C166.607 183.891 166.77 184.1 167.002 184.129C167.233 184.158 167.442 183.992 167.471 183.761C167.5 183.529 167.334 183.32 167.103 183.291C166.872 183.264 166.661 183.429 166.634 183.659Z" fill="#2D2F4F"/>
<path d="M161.77 182.56C161.742 182.791 161.906 183 162.137 183.029C162.369 183.057 162.578 182.893 162.607 182.661C162.636 182.43 162.47 182.221 162.239 182.192C162.007 182.163 161.798 182.33 161.77 182.56Z" fill="#2D2F4F"/>
<path d="M166.549 187.88C166.549 187.88 164.803 188.41 163.728 188.033C162.653 187.655 162.312 186.994 162.312 186.994C162.312 186.994 162.337 188.417 163.689 188.921C165.04 189.424 166.549 187.88 166.549 187.88Z" fill="white"/>
<path d="M163.204 186.269C163.218 186.271 163.234 186.273 163.251 186.274C164.051 186.348 164.327 186.404 164.327 186.404L164.372 186.2C164.361 186.199 164.086 186.141 163.27 186.067C163.08 186.049 162.842 185.991 162.786 185.816C162.722 185.622 162.894 185.307 163.225 185.014C163.864 184.448 164.054 183.317 164.06 183.27L163.853 183.237C163.851 183.248 163.668 184.342 163.085 184.858C162.68 185.217 162.494 185.599 162.585 185.882C162.635 186.031 162.783 186.219 163.204 186.269Z" fill="#DD9292"/>
<path d="M165.76 183.892C165.642 184.985 166.433 185.966 167.524 186.083C168.616 186.2 169.596 185.41 169.713 184.318C169.831 183.225 169.04 182.245 167.949 182.128C166.858 182.01 165.877 182.801 165.76 183.892Z" stroke="#2D2F4F" stroke-width="2" stroke-miterlimit="10"/>
<path d="M162.544 184.577C163.615 184.333 164.286 183.266 164.041 182.195C163.797 181.123 162.731 180.453 161.66 180.697C160.589 180.941 159.919 182.008 160.163 183.079C160.407 184.151 161.473 184.821 162.544 184.577Z" stroke="#2D2F4F" stroke-width="2" stroke-miterlimit="10"/>
<path d="M165.999 183.139C165.999 183.139 165.27 181.769 164.076 182.378" stroke="#2D2F4F" stroke-width="2" stroke-miterlimit="10"/>
<path d="M153.046 283.807C153.046 283.807 154.74 287.126 154.055 288.021C153.371 288.916 146.872 292.441 145.177 294.493C143.482 296.546 140.17 296.335 138.381 294.861C136.593 293.387 136.719 292.126 139.943 289.546C143.167 286.967 145.177 284.059 145.177 284.059C145.177 284.059 149.666 286.059 153.046 283.807Z" fill="#2D2F4F"/>
<path d="M129.677 193.119C129.677 193.119 127.37 190.663 127.094 188.531C126.817 186.398 124.491 183.711 124.491 183.711C124.491 183.711 122.941 184.534 123.717 186.096C124.491 187.658 124.491 188.008 124.491 188.008C124.491 188.008 122.455 185.482 121.585 183.711C120.712 181.94 115.949 184.185 119.202 189.508C122.455 194.831 127.092 197.135 127.092 197.135C127.092 197.135 127.597 194.702 129.677 193.119Z" fill="#FFBDBD"/>
<path d="M86.2729 303.754C86.2729 303.754 85.3764 306.462 85.8134 307.079C86.2504 307.698 88.6378 309.583 89.7576 309.35C90.8774 309.117 96.3238 305.236 98.263 304.189C100.204 303.145 100.949 301.835 101.248 300.848C101.547 299.861 100.65 299.04 98.1135 299.636C95.5767 300.234 92.9644 300.848 92.9644 300.848L86.2729 303.754Z" fill="#313756"/>
<path d="M69.7295 269.217C69.7295 269.217 89.1324 261.783 93.0718 262.908C97.0111 264.034 98.1374 268.877 97.2923 275.715C96.4472 282.554 94.288 302.889 94.288 302.889C94.288 302.889 93.4863 305.118 89.7557 305.052C86.4799 304.995 85.7794 303.01 85.7794 303.01L86.271 279.373L69.7295 277.965V269.217Z" fill="#313756"/>
<path d="M95.4818 308.734C95.4818 308.734 95.0882 312.187 95.7984 312.897C96.5085 313.607 98.7689 315.158 99.9321 315.03C101.095 314.901 104.453 311.928 107.941 310.7C111.429 309.472 113.884 306.287 111.17 305.359C108.457 304.432 102.385 305.919 102.385 305.919L95.4818 308.734Z" fill="#313756"/>
<path d="M44.4994 304.167C44.4994 304.167 43.3603 308.816 46.3518 309.811C48.103 310.395 49.7337 309.279 49.7337 309.279L56.8284 312.564L43.4695 324.848C43.4695 324.848 42.7594 327.976 45.7091 328.236C48.6589 328.496 50.1353 325.459 50.1353 325.459C50.1353 325.459 61.0088 316.171 62.9046 316.171C64.8003 316.171 73.5659 324.591 73.5659 324.591C73.5659 324.591 73.913 327.542 77.4716 328.671C81.0302 329.8 82.0247 325.92 81.5443 324.764C81.0639 323.609 69.5752 312.437 69.5752 312.437L78.5994 307.666C78.5994 307.666 80.7683 308.01 83.1124 306.621C85.4548 305.232 83.9221 301.975 83.9221 301.975L64.1079 308.53L54.6499 308.031L51.0848 308.262L44.4994 304.167Z" fill="#9297A5"/>
<path d="M56.3427 313.222L44.0603 323.334C43.1172 324.11 43.2987 325.605 44.4009 326.134L44.9262 326.384C45.5014 326.661 46.1842 326.584 46.6854 326.187L60.9167 314.914C61.2252 314.67 61.6108 314.541 62.006 314.554L64.3404 314.625C64.7211 314.636 65.0858 314.777 65.375 315.025L78.4383 326.19C78.9042 326.589 79.55 326.699 80.1204 326.481L80.4674 326.348C81.5936 325.917 81.9069 324.47 81.0602 323.611L70.868 313.283C70.3169 312.725 70.2285 311.859 70.6543 311.2L71.607 309.726C71.7709 309.474 71.9974 309.27 72.2673 309.136L83.0235 303.794C84.1465 303.236 84.2782 301.685 83.2661 300.946L82.4387 300.342C81.9503 299.985 81.3092 299.921 80.7598 300.172L70.8037 304.717C70.6446 304.789 66.4755 306.263 66.302 306.284L62.0445 307.36C61.7489 307.396 57.3163 306.292 57.0432 306.171L47.4534 302.25C46.867 301.991 46.1842 302.089 45.6958 302.505L45.0821 303.026C44.1406 303.826 44.3623 305.337 45.495 305.832L55.7113 309.977C56.0407 310.122 56.3154 310.369 56.4937 310.681L56.7347 311.103C57.1364 311.811 56.9709 312.704 56.3427 313.222Z" fill="url(#paint8_linear_2396_123865)"/>
<path d="M69.0624 309.536V310.819C69.0624 312.576 66.9739 314.001 64.3921 314.001C61.8119 314.001 59.7217 312.577 59.7217 310.819V309.536H59.7442C59.9739 311.15 61.9645 312.41 64.3921 312.41C66.8196 312.41 68.8102 311.15 69.04 309.536H69.0624Z" fill="url(#paint9_linear_2396_123865)"/>
<path d="M69.0624 309.225C69.0624 309.331 69.056 309.434 69.04 309.536C68.8102 311.15 66.8196 312.41 64.3921 312.41C61.9645 312.41 59.9739 311.15 59.7442 309.536C59.7281 309.434 59.7217 309.331 59.7217 309.225C59.7217 307.468 61.8103 306.042 64.3921 306.042C66.9739 306.042 69.0624 307.468 69.0624 309.225Z" fill="#ADB1BC"/>
<path d="M66.7426 300.019V309.008C66.7426 309.892 65.6919 310.608 64.3938 310.608C63.0956 310.608 62.0449 309.892 62.0449 309.008V300.019H62.0562C62.1718 300.83 63.1728 301.465 64.3954 301.465C65.6164 301.465 66.6189 300.832 66.7346 300.019H66.7426Z" fill="url(#paint10_linear_2396_123865)"/>
<path d="M66.7429 299.863C66.7429 299.916 66.7397 299.967 66.7316 300.019C66.616 300.83 65.6151 301.465 64.3924 301.465C63.1714 301.465 62.1689 300.832 62.0532 300.019C62.0452 299.967 62.042 299.916 62.042 299.863C62.042 298.979 63.0927 298.262 64.3908 298.262C65.6922 298.262 66.7429 298.979 66.7429 299.863Z" fill="#ADB1BC"/>
<path d="M69.0624 291.274V298.674C69.0624 300.43 66.9739 301.856 64.3921 301.856C61.8119 301.856 59.7217 300.432 59.7217 298.674V291.274H59.7442C59.9739 292.888 61.9645 294.148 64.3921 294.148C66.8196 294.148 68.8102 292.888 69.04 291.274H69.0624Z" fill="url(#paint11_linear_2396_123865)"/>
<path d="M69.0624 290.964C69.0624 291.07 69.056 291.173 69.04 291.276C68.8102 292.889 66.8196 294.149 64.3921 294.149C61.9645 294.149 59.9739 292.889 59.7442 291.276C59.7281 291.173 59.7217 291.07 59.7217 290.964C59.7217 289.207 61.8103 287.782 64.3921 287.782C66.9739 287.782 69.0624 289.206 69.0624 290.964Z" fill="#ADB1BC"/>
<path d="M95.2805 283.855L85.5927 279.886C85.5927 279.886 75.386 285.524 72.5456 286.298C69.7051 287.073 65.6934 286.298 65.6934 286.298C65.6934 286.298 64.7664 296.755 68.8986 297.727C73.0308 298.701 95.2805 283.855 95.2805 283.855Z" fill="#ADB1BC"/>
<path d="M50.6894 277.75C50.6894 277.75 49.0683 284.976 51.7578 287.091C54.4472 289.204 67.1281 294.394 70.5855 294.009C74.0445 293.625 96.9642 279.352 96.9642 279.352C96.9642 279.352 95.2355 288.116 96.0035 294.651C96.7714 301.186 95.2789 308.752 95.2789 308.752C95.2789 308.752 99.6971 310.097 101.427 308.752C103.156 307.407 103.156 307.407 103.156 307.407C103.156 307.407 110.799 269.089 103.689 266.59C96.5803 264.09 70.9213 274.871 70.9213 274.871L50.6894 277.75Z" fill="#45496D"/>
<path d="M123.955 289.734V340.654L125.897 339.682L127.647 289.734H123.955Z" fill="url(#paint12_linear_2396_123865)"/>
<path d="M172.348 260.735V311.655L174.29 310.682L176.04 260.735H172.348Z" fill="url(#paint13_linear_2396_123865)"/>
<path d="M42.0381 242.114V293.034L43.9805 292.061L45.7284 242.114H42.0381Z" fill="url(#paint14_linear_2396_123865)"/>
<path d="M174.1 257.123L96.7763 212.32C94.2604 210.854 91.15 210.861 88.6421 212.338L43.8035 238.724C41.4435 240.113 41.4515 243.53 43.8164 244.909L121.063 289.667C123.949 291.348 127.517 291.34 130.394 289.646L174.115 263.917C176.708 262.392 176.7 258.637 174.1 257.123Z" fill="url(#paint15_linear_2396_123865)"/>
<path d="M174.101 252.866L96.7766 208.063C94.2607 206.597 91.1503 206.603 88.6424 208.08L43.8055 234.467C41.4454 235.856 41.4534 239.272 43.8184 240.651L121.065 285.41C123.951 287.091 127.519 287.083 130.396 285.389L174.117 259.659C176.708 258.133 176.7 254.38 174.101 252.866Z" fill="url(#paint16_linear_2396_123865)"/>
<path d="M70.0086 221.139C70.0086 221.139 70.4167 225.706 70.0086 226.534C69.6006 227.362 69.1347 227.932 69.1347 227.932C69.1347 227.932 69.9492 228.708 70.0086 229.433C70.0665 230.158 68.7218 235.852 68.3073 236.526C67.8928 237.199 64.2715 236.836 63.4425 237.612C62.6151 238.388 61.9419 242.53 61.9419 242.53L53.0928 237.768L54.3347 232.54C54.3347 232.54 58.6307 224.331 58.8364 223.958C59.0452 223.585 70.0086 221.139 70.0086 221.139Z" fill="#FFBDBD"/>
<path d="M70.6426 219.856C70.6426 219.856 70.9479 221.696 69.4473 222.563C67.9468 223.429 67.3812 223.688 67.3812 223.688C67.3812 223.688 67.8439 225.965 67.1708 226.638C66.4976 227.312 65.9337 227.519 65.9337 227.519C65.9337 227.519 66.1972 231.092 65.9337 231.246C65.6702 231.402 64.687 231.246 64.687 231.246C64.687 231.246 64.3255 227.673 63.4965 227.726C62.6691 227.778 62.2546 228.62 62.5646 230.968C62.8747 233.316 62.7719 235.025 61.1669 235.283C59.5635 235.542 54.077 235.463 52.9909 233.381C51.9049 231.298 51.4855 226.976 51.0582 224.478C50.6308 221.979 51.9081 221.476 51.9081 221.476C51.9081 221.476 51.0759 218.718 54.4915 217.63C57.9071 216.544 64.8476 215.499 67.4294 216.073C70.0112 216.647 70.6426 219.856 70.6426 219.856Z" fill="#2D2F4F"/>
<path d="M47.8513 235.378C47.8513 235.378 68.5331 244.411 70.6136 247.471C72.6941 250.531 76.8536 274.275 76.8536 274.275C76.8536 274.275 75.9973 279.415 66.5762 281.74C57.1551 284.066 52.1891 278.761 52.1891 278.761C52.1891 278.761 42.1013 242.844 43.8139 238.928C45.5266 235.012 47.8513 235.378 47.8513 235.378Z" fill="url(#paint17_linear_2396_123865)"/>
<path d="M32.9155 255.309L38.9499 286.232L67.4911 300.848C67.4911 300.848 60.8221 270.164 59.6123 268.308C58.642 266.818 41.6843 257.437 35.0057 253.779C33.9421 253.195 32.6841 254.118 32.9155 255.309Z" fill="#BABECC"/>
<path d="M34.4121 253.483L57.3993 267.8C58.3793 268.42 59.0525 269.423 59.2533 270.566L63.8418 296.568C64.5053 300.332 68.6873 302.312 72.0194 300.44L94.8716 287.594C95.45 287.269 95.8083 286.657 95.8083 285.993V284.701C95.8083 283.986 95.0419 283.531 94.4153 283.875L71.3992 296.452C69.648 297.41 67.4727 296.366 67.1257 294.398L62.4938 268.221C62.2978 267.115 61.6391 266.146 60.6832 265.558L37.8824 251.807L34.4121 253.483Z" fill="url(#paint18_linear_2396_123865)"/>
<path d="M51.3711 236.955C51.3711 236.955 52.4073 235.788 53.5095 236.019C54.6132 236.252 62.6655 239.623 62.9515 240.137C63.2374 240.651 63.5218 242.835 63.5218 242.835C63.5218 242.835 52.8684 238.512 51.3711 236.955Z" fill="url(#paint19_linear_2396_123865)"/>
<path d="M111.149 255.281V254.086L83.077 239.512L67.1572 248.141V249.336L95.2293 265.104L111.149 255.281Z" fill="#999393"/>
<path d="M111.149 254.086L83.077 238.316L67.1572 248.141L95.2293 263.909L111.149 254.086Z" fill="#B2B1B1"/>
<path d="M111.149 254.086L118.491 235.873L90.5189 220.104L83.1768 238.316L111.149 254.086Z" fill="#CCC4C4"/>
<path d="M84.8301 237.738L91.1794 221.986L116.84 236.452L110.491 252.202L84.8301 237.738Z" fill="white"/>
<path d="M83.4485 240.592L107.771 254.086L100.498 258.287L76.1738 244.793L83.4485 240.592Z" fill="#999393"/>
<path d="M111.606 236.988L106.222 233.787C106.034 233.674 105.94 233.429 106.013 233.241C106.087 233.053 106.301 232.99 106.489 233.101L111.873 236.302C112.061 236.415 112.155 236.661 112.082 236.849C112.008 237.038 111.794 237.101 111.606 236.988Z" fill="#BEC6C6"/>
<path d="M110.929 238.729L103.767 234.47C103.579 234.358 103.484 234.112 103.558 233.924C103.632 233.736 103.846 233.673 104.034 233.784L111.196 238.043C111.384 238.155 111.479 238.401 111.405 238.589C111.331 238.779 111.117 238.84 110.929 238.729Z" fill="#BEC6C6"/>
<path d="M110.253 240.468L103.09 236.209C102.902 236.097 102.808 235.851 102.882 235.663C102.955 235.475 103.169 235.412 103.357 235.523L110.519 239.782C110.707 239.894 110.802 240.14 110.728 240.328C110.654 240.518 110.441 240.581 110.253 240.468Z" fill="#BEC6C6"/>
<path d="M109.577 242.209L102.415 237.95C102.227 237.837 102.132 237.591 102.206 237.403C102.28 237.215 102.493 237.152 102.681 237.263L109.844 241.522C110.032 241.635 110.126 241.881 110.052 242.069C109.979 242.258 109.765 242.321 109.577 242.209Z" fill="#BEC6C6"/>
<path d="M107.459 243.092L101.738 239.69C101.55 239.578 101.455 239.332 101.529 239.144C101.603 238.956 101.817 238.893 102.005 239.004L107.726 242.406C107.914 242.519 108.008 242.765 107.935 242.953C107.861 243.141 107.647 243.203 107.459 243.092Z" fill="#BEC6C6"/>
<path d="M90.9207 233.405L89.6611 232.665L90.5142 230.471L91.7738 231.211L90.9207 233.405Z" fill="#FC990D"/>
<path d="M93.0109 234.634L91.7529 233.895L93.7419 228.774L95.0015 229.515L93.0109 234.634Z" fill="#FC990D"/>
<path d="M95.1007 235.863L93.8428 235.123L96.7491 227.646L98.0071 228.385L95.1007 235.863Z" fill="#FC990D"/>
<path d="M97.1916 237.093L95.9336 236.352L97.582 232.112L98.8399 232.853L97.1916 237.093Z" fill="#FC990D"/>
<path d="M90.5186 220.104L118.491 235.873L119.201 235.661L91.2287 219.893L90.5186 220.104Z" fill="#B2B1B1"/>
<path d="M111.86 253.923L119.202 235.711L118.492 235.873L111.149 254.086L111.86 253.923Z" fill="#999393"/>
<path d="M68.6689 246.317L72.5569 245.026C72.5569 245.026 73.8727 244.759 74.8335 245.984C75.7958 247.209 76.0143 248.821 76.0143 248.821L73.2156 250.839L68.6689 246.317Z" fill="url(#paint20_linear_2396_123865)"/>
<path d="M69.3798 246.326C65.5047 246.591 64.9295 251.445 66.3578 258.211C67.786 264.977 70.7149 274.555 74.5434 273.765C78.3735 272.976 94.4861 261.194 94.4861 261.194C94.4861 261.194 96.1007 259.033 94.6548 257.051C92.9165 254.669 90.6094 255.532 90.6094 255.532C90.6094 255.532 78.4185 265.331 77.6297 265.106C76.8408 264.881 76.8296 245.817 69.3798 246.326Z" fill="url(#paint21_linear_2396_123865)"/>
<path d="M95.2389 259.19C95.2389 259.19 96.7282 258.075 96.929 256.865C97.1298 255.654 97.3483 255.622 98.4633 255.696C99.5783 255.77 100.521 255.598 100.563 255.201C100.603 254.804 97.8801 252.705 96.7282 252.705C95.5763 252.705 94.1849 254.086 94.1849 254.086C94.1849 254.086 95.1023 253.29 95.067 252.776C95.0316 252.262 94.7087 252.204 94.7087 252.204C94.7087 252.204 93.2612 253.028 93.0137 253.514C92.7647 253.999 91.9727 255.399 91.9727 255.399C91.9727 255.399 95.2437 256.995 95.2389 259.19Z" fill="#FFBDBD"/>
<path d="M79.0483 245.325C80.1633 245.399 81.1063 245.227 81.1481 244.83C81.1899 244.433 78.4651 242.334 77.3131 242.334C76.1612 242.334 74.4181 243.401 74.4181 243.401L72.5576 245.026C72.5576 245.026 75.8287 246.624 75.8238 248.819C75.8238 248.819 76.5741 248.255 77.0818 247.495C77.5092 247.422 78.4265 247.249 78.8828 247.012C79.4917 246.696 79.5592 246.132 79.5592 246.132C79.5592 246.132 78.7864 246.243 78.2514 246.087C78.0393 246.026 77.8048 246.035 77.5991 246.067C77.7919 245.277 78.0843 245.261 79.0483 245.325Z" fill="#FFBDBD"/>
<path d="M6.74771 242.696C8.01371 242.578 9.31666 242.149 10.6212 241.42L106.987 187.161C111.365 184.71 114.674 179.46 114.674 174.953V77.9395C114.674 73.8316 111.837 71.1122 107.926 71.4738C106.66 71.5912 105.357 72.0203 104.053 72.7499L7.68757 127.008C3.30799 129.459 0 134.71 0 139.216V236.228C0 240.338 2.83725 243.057 6.74771 242.696Z" fill="url(#paint22_linear_2396_123865)"/>
<path d="M9.08072 244.07C10.3467 243.952 11.6497 243.523 12.9542 242.794L109.32 188.536C113.698 186.085 117.007 180.834 117.007 176.327V79.3152C117.007 75.2073 114.17 72.488 110.259 72.8496C108.993 72.9669 107.691 73.396 106.386 74.1257L10.0206 128.384C5.6426 130.835 2.33301 136.085 2.33301 140.592V237.604C2.33301 241.714 5.17026 244.433 9.08072 244.07Z" fill="url(#paint23_linear_2396_123865)"/>
<path d="M5.78906 140.27V237.284C5.78906 240.436 8.34195 241.559 11.4909 239.796L107.848 185.543C110.999 183.781 113.55 179.799 113.55 176.647V79.635C113.55 76.4833 110.997 75.3583 107.848 77.1214L11.4909 131.375C8.34195 133.138 5.78906 137.12 5.78906 140.27Z" fill="white"/>
<path d="M5.78906 140.27V144.819L113.55 84.1447V79.635C113.55 76.4833 110.997 75.3583 107.848 77.1214L11.4909 131.375C8.34195 133.138 5.78906 137.12 5.78906 140.27Z" fill="url(#paint24_linear_2396_123865)"/>
<path d="M70.9414 127.966V151.44L107.18 130.848" stroke="#CFD0D1" stroke-width="1.4424" stroke-miterlimit="10"/>
<path d="M75.4 148.908L75.3984 125.433" stroke="#CFD0D1" stroke-width="1.4424" stroke-miterlimit="10"/>
<path d="M79.7588 146.381V122.769" stroke="#CFD0D1" stroke-width="1.4424" stroke-miterlimit="10"/>
<path d="M84.1191 143.855V120.202" stroke="#CFD0D1" stroke-width="1.4424" stroke-miterlimit="10"/>
<path d="M88.4775 141.328V117.674" stroke="#CFD0D1" stroke-width="1.4424" stroke-miterlimit="10"/>
<path d="M92.8379 138.802V115.525" stroke="#CFD0D1" stroke-width="1.4424" stroke-miterlimit="10"/>
<path d="M97.1963 136.275V112.836" stroke="#CFD0D1" stroke-width="1.4424" stroke-miterlimit="10"/>
<path d="M101.557 133.749V110.57" stroke="#CFD0D1" stroke-width="1.4424" stroke-miterlimit="10"/>
<path d="M105.916 131.222V108.081" stroke="#CFD0D1" stroke-width="1.4424" stroke-miterlimit="10"/>
<path d="M70.9414 147.543L107.18 126.95" stroke="#CFD0D1" stroke-width="1.4424" stroke-miterlimit="10"/>
<path d="M70.9414 143.628L107.18 123.035" stroke="#CFD0D1" stroke-width="1.4424" stroke-miterlimit="10"/>
<path d="M70.9414 139.713L107.18 119.12" stroke="#CFD0D1" stroke-width="1.4424" stroke-miterlimit="10"/>
<path d="M70.9414 135.798L107.18 115.205" stroke="#CFD0D1" stroke-width="1.4424" stroke-miterlimit="10"/>
<path d="M70.9414 131.881L107.18 111.29" stroke="#CFD0D1" stroke-width="1.4424" stroke-miterlimit="10"/>
<path d="M70.9414 127.966L107.18 107.375" stroke="#CFD0D1" stroke-width="1.4424" stroke-miterlimit="10"/>
<path d="M73.2922 116.406L80.199 112.405C80.5589 112.198 80.8545 111.711 80.8545 111.324V111.186C80.8545 110.798 80.5589 110.652 80.199 110.859L73.2922 114.86C72.9323 115.067 72.6367 115.554 72.6367 115.941V116.079C72.6351 116.467 72.9307 116.613 73.2922 116.406Z" fill="#C9CBD1"/>
<path d="M70.9492 157.233L76.9531 153.756C77.2664 153.576 77.5234 153.154 77.5234 152.816V152.696C77.5234 152.36 77.2664 152.231 76.9531 152.413L70.9492 155.889C70.636 156.069 70.3789 156.492 70.3789 156.829V156.95C70.3789 157.286 70.636 157.413 70.9492 157.233Z" fill="#C9CBD1"/>
<path d="M66.8303 130.639L69.8314 128.9C69.9888 128.81 70.1158 128.598 70.1158 128.431V128.371C70.1158 128.202 69.9872 128.14 69.8314 128.23L66.8303 129.967C66.6728 130.057 66.5459 130.269 66.5459 130.436V130.496C66.5459 130.666 66.6728 130.729 66.8303 130.639Z" fill="#C9CBD1"/>
<path d="M66.8303 134.626L69.8314 132.887C69.9888 132.797 70.1158 132.585 70.1158 132.418V132.359C70.1158 132.19 69.9872 132.127 69.8314 132.217L66.8303 133.956C66.6728 134.046 66.5459 134.258 66.5459 134.425V134.485C66.5459 134.652 66.6728 134.716 66.8303 134.626Z" fill="#C9CBD1"/>
<path d="M66.8303 138.614L69.8314 136.875C69.9888 136.785 70.1158 136.573 70.1158 136.406V136.346C70.1158 136.177 69.9872 136.115 69.8314 136.205L66.8303 137.944C66.6728 138.034 66.5459 138.246 66.5459 138.413V138.472C66.5459 138.64 66.6728 138.704 66.8303 138.614Z" fill="#C9CBD1"/>
<path d="M66.8303 142.599L69.8314 140.86C69.9888 140.77 70.1158 140.558 70.1158 140.391V140.332C70.1158 140.163 69.9872 140.1 69.8314 140.19L66.8303 141.929C66.6728 142.019 66.5459 142.231 66.5459 142.398V142.458C66.5459 142.627 66.6728 142.689 66.8303 142.599Z" fill="#C9CBD1"/>
<path d="M66.8303 146.587L69.8314 144.848C69.9888 144.758 70.1158 144.546 70.1158 144.378V144.319C70.1158 144.15 69.9872 144.088 69.8314 144.178L66.8303 145.917C66.6728 146.007 66.5459 146.219 66.5459 146.386V146.445C66.5459 146.614 66.6728 146.677 66.8303 146.587Z" fill="#C9CBD1"/>
<path d="M66.8303 150.574L69.8314 148.835C69.9888 148.745 70.1158 148.533 70.1158 148.366V148.307C70.1158 148.138 69.9872 148.075 69.8314 148.165L66.8303 149.904C66.6728 149.994 66.5459 150.206 66.5459 150.373V150.433C66.5459 150.6 66.6728 150.664 66.8303 150.574Z" fill="#C9CBD1"/>
<path d="M81.1367 151.294L87.1406 147.818C87.4539 147.638 87.7109 147.215 87.7109 146.878V146.757C87.7109 146.421 87.4539 146.293 87.1406 146.474L81.1367 149.951C80.8235 150.131 80.5664 150.553 80.5664 150.891V151.011C80.5664 151.347 80.8219 151.474 81.1367 151.294Z" fill="#C9CBD1"/>
<path d="M91.3233 145.356L97.3271 141.88C97.6404 141.699 97.8975 141.277 97.8975 140.939V140.819C97.8975 140.483 97.6404 140.354 97.3271 140.536L91.3233 144.012C91.01 144.192 90.7529 144.615 90.7529 144.952V145.073C90.7545 145.409 91.01 145.536 91.3233 145.356Z" fill="#C9CBD1"/>
<path d="M101.511 139.417L107.515 135.941C107.828 135.761 108.085 135.338 108.085 135.001V134.88C108.085 134.544 107.828 134.416 107.515 134.597L101.511 138.074C101.197 138.254 100.94 138.676 100.94 139.014V139.134C100.94 139.47 101.197 139.597 101.511 139.417Z" fill="#C9CBD1"/>
<path d="M73.2922 120.203L86.3651 112.679C86.725 112.471 87.0206 111.984 87.0206 111.597V111.459C87.0206 111.071 86.725 110.925 86.3651 111.133L73.2922 118.657C72.9323 118.865 72.6367 119.352 72.6367 119.739V119.877C72.6351 120.265 72.9307 120.411 73.2922 120.203Z" fill="#C9CBD1"/>
<path d="M71.1609 150.002L70.7207 149.568L74.4657 145.778L76.5494 144.782L79.9972 140.623L84.674 137.616L87.4904 133.525L90.9847 131.283L92.6235 127.564L92.7922 127.539C93.054 127.465 94.1256 126.364 94.9562 125.385L97.0095 122.918L99.5093 121.009L101.738 117.637L104.276 113.171L107.901 110.498L108.267 110.996L104.748 113.592L102.258 117.971L99.9672 121.438L97.4127 123.389L95.4286 125.782C94.7795 126.547 93.6742 127.783 93.0685 128.085L91.4747 131.701L87.9274 133.977L85.111 138.067L80.4117 141.09L76.9398 145.282L74.8304 146.291L71.1609 150.002Z" fill="url(#paint25_linear_2396_123865)"/>
<path d="M70.9414 146.261L76.7444 140.767L79.7584 139.142C79.7584 139.142 81.9787 136.548 82.374 135.984C82.7692 135.42 89.5121 130.467 89.5121 130.467C89.5121 130.467 93.4611 125.956 94.3238 124.659C95.1866 123.363 98.6954 118.087 98.6954 118.087L100.94 116.674L107.517 108.293" stroke="#1B70B8" stroke-width="3.8463" stroke-miterlimit="10"/>
<path d="M74.6059 164.001C70.003 166.644 66.2725 173.485 66.2725 179.28C66.2725 185.074 70.003 187.628 74.6059 184.984C79.2088 182.34 82.9393 175.5 82.9393 169.704C82.9393 163.911 79.2088 161.357 74.6059 164.001ZM74.6059 182.49C71.0971 184.505 68.2534 182.559 68.2534 178.142C68.2534 173.726 71.0971 168.512 74.6059 166.497C78.1147 164.481 80.9584 166.427 80.9584 170.844C80.9584 175.26 78.1131 180.474 74.6059 182.49Z" fill="url(#paint26_linear_2396_123865)"/>
<path d="M96.7192 151.298C92.1163 153.941 88.3857 160.781 88.3857 166.577C88.3857 172.372 92.1163 174.925 96.7192 172.281C101.322 169.637 105.053 162.797 105.053 157.001C105.053 151.208 101.322 148.654 96.7192 151.298ZM96.7192 169.786C93.2104 171.802 90.3667 169.856 90.3667 165.439C90.3667 161.023 93.2104 155.809 96.7192 153.793C100.228 151.778 103.072 153.724 103.072 158.141C103.072 162.557 100.228 167.771 96.7192 169.786Z" fill="url(#paint27_linear_2396_123865)"/>
<path d="M74.1562 173.07V173.422L72.7921 177.795L72.3535 178.047L73.7127 173.78V173.767L72.1816 174.648V174.206L74.1562 173.07Z" fill="white"/>
<path d="M76.4636 172.192L75.2683 172.879L75.1478 173.96C75.2201 173.907 75.2876 173.856 75.4033 173.79C75.6443 173.652 75.8853 173.579 76.0781 173.615C76.3239 173.65 76.5263 173.874 76.5263 174.37C76.5263 175.14 76.0395 175.995 75.3599 176.386C75.0177 176.582 74.7285 176.627 74.5791 176.591L74.6851 176.124C74.8153 176.146 75.0707 176.12 75.3551 175.958C75.7551 175.728 76.0973 175.204 76.0973 174.677C76.0925 174.171 75.8226 173.962 75.196 174.322C75.0177 174.425 74.8779 174.529 74.7623 174.613L74.9647 172.605L76.462 171.746V172.192H76.4636Z" fill="white"/>
<path d="M96.5403 160.854L94.9802 161.556L94.8597 162.638C94.932 162.585 94.9995 162.533 95.1152 162.467C95.3562 162.329 95.5972 162.257 95.79 162.292C96.0358 162.327 96.2382 162.551 96.2382 163.048C96.2382 163.817 95.7514 164.674 95.0718 165.063C94.7296 165.259 94.4404 165.304 94.291 165.269L94.397 164.801C94.5272 164.823 94.7826 164.798 95.067 164.634C95.467 164.404 95.8092 163.88 95.8092 163.353C95.8044 162.847 95.5345 162.638 94.9079 162.998C94.7296 163.101 94.5898 163.205 94.4742 163.289L94.6766 161.281L96.1739 160.421L96.5403 160.854Z" fill="white"/>
<path d="M98.857 160.809C98.857 162.149 98.4617 163.115 97.7677 163.514C97.1556 163.866 96.7411 163.382 96.7314 162.083C96.7314 160.76 97.1845 159.774 97.8207 159.409C99.4562 158.47 98.857 160.069 98.857 160.809ZM97.1572 161.845C97.1572 162.871 97.4078 163.308 97.7934 163.088C98.2272 162.839 98.4344 162.083 98.4344 161.077C98.4344 160.106 98.2368 159.584 97.7982 159.835C97.4271 160.047 97.1572 160.772 97.1572 161.845Z" fill="white"/>
<path d="M67.9983 197.256L74.905 193.256C75.2649 193.049 75.5605 192.562 75.5605 192.174V192.036C75.5605 191.649 75.2649 191.503 74.905 191.71L67.9983 195.71C67.6384 195.918 67.3428 196.405 67.3428 196.792V196.93C67.3428 197.317 67.6384 197.464 67.9983 197.256Z" fill="#C9CBD1"/>
<path d="M67.9983 201.054L81.0712 193.529C81.431 193.322 81.7266 192.835 81.7266 192.448V192.309C81.7266 191.922 81.431 191.776 81.0712 191.983L67.9983 199.508C67.6384 199.715 67.3428 200.202 67.3428 200.59V200.728C67.3428 201.115 67.6384 201.261 67.9983 201.054Z" fill="#C9CBD1"/>
<path d="M90.1242 184.334L97.031 180.334C97.3909 180.127 97.6865 179.64 97.6865 179.253V179.114C97.6865 178.727 97.3909 178.581 97.031 178.788L90.1242 182.788C89.7644 182.996 89.4688 183.483 89.4688 183.87V184.008C89.4688 184.396 89.7644 184.543 90.1242 184.334Z" fill="#C9CBD1"/>
<path d="M90.1242 188.132L103.197 180.607C103.557 180.4 103.853 179.913 103.853 179.526V179.388C103.853 179 103.557 178.854 103.197 179.061L90.1242 186.586C89.7644 186.793 89.4688 187.28 89.4688 187.668V187.806C89.4688 188.193 89.7644 188.339 90.1242 188.132Z" fill="#C9CBD1"/>
<path d="M23.9503 177.266L20.1025 179.275V169.903L23.9503 167.895V177.266Z" fill="url(#paint28_linear_2396_123865)"/>
<path d="M30.4621 173.867L26.6143 175.876V163.737L30.4621 161.728V173.867Z" fill="url(#paint29_linear_2396_123865)"/>
<path d="M36.9738 170.466L33.126 172.475V153.734L36.9738 151.725V170.466Z" fill="url(#paint30_linear_2396_123865)"/>
<path d="M43.4835 167.067L39.6357 169.076V144.017L43.4835 142.008V167.067Z" fill="url(#paint31_linear_2396_123865)"/>
<path d="M49.9953 163.668L46.1475 165.677V153.538L49.9953 151.529V163.668Z" fill="url(#paint32_linear_2396_123865)"/>
<path d="M17.4453 184.246L51.7221 165.924" stroke="#40C6C2" stroke-width="0.92" stroke-miterlimit="10"/>
<path d="M17.4453 152.917V184.246" stroke="#CFD0D1" stroke-width="1.4712" stroke-miterlimit="10"/>
<path d="M29.2268 199.469L40.0633 203.153C37.6711 208.156 33.8956 212.616 29.6462 214.954C22.4133 218.937 16.5508 215.271 16.5508 206.769C16.5508 198.265 22.4133 188.145 29.6462 184.164C33.9727 181.782 37.8077 182.137 40.1935 184.625C34.7616 191.858 29.5064 198.905 29.2268 199.469Z" fill="url(#paint33_linear_2396_123865)"/>
<path d="M44.337 191.472C44.337 194.979 43.3393 198.762 41.6588 202.275L30.8223 198.592C31.1018 198.027 36.357 190.978 41.7889 183.746C43.3907 185.419 44.337 188.055 44.337 191.472Z" fill="url(#paint34_linear_2396_123865)"/>
<path d="M22.6828 147.956L29.5896 144.023C29.9495 143.819 30.2451 143.323 30.2451 142.921V142.778C30.2451 142.376 29.9495 142.214 29.5896 142.418L22.6828 146.351C22.323 146.555 22.0274 147.051 22.0274 147.453V147.596C22.0257 147.998 22.3214 148.16 22.6828 147.956Z" fill="#C9CBD1"/>
<path d="M22.6828 151.906L35.7557 144.51C36.1156 144.306 36.4112 143.809 36.4112 143.408V143.265C36.4112 142.863 36.1156 142.701 35.7557 142.905L22.6828 150.301C22.323 150.505 22.0274 151.002 22.0274 151.403V151.546C22.0257 151.948 22.3214 152.111 22.6828 151.906Z" fill="#C9CBD1"/>
<path d="M211.776 113.633L228.003 26.4712" stroke="#A5A5A5" stroke-miterlimit="10"/>
<path d="M219.046 104.919L290.874 49.3799" stroke="#A5A5A5" stroke-miterlimit="10"/>
<path d="M215.656 26.4712L122.393 138.801L247.407 204.115L293.98 53.9346" stroke="#A5A5A5" stroke-miterlimit="10"/>
<path d="M219.139 21.6899L306.83 177.234" stroke="#A5A5A5" stroke-miterlimit="10"/>
<path d="M105.053 82.8493L139.943 42.0657L212.123 117.092L130.386 154.43" stroke="#A5A5A5" stroke-miterlimit="10"/>
<path d="M130.386 148.591L297.181 172.097L316.317 111.039L143.594 37.5479" stroke="#A5A5A5" stroke-miterlimit="10"/>
<path d="M301.254 176.274L252.376 210.128L216.775 122.768L311.908 118.262" stroke="#A5A5A5" stroke-miterlimit="10"/>
<path d="M135.544 52.2584C145.527 52.2584 153.619 44.1626 153.619 34.1761C153.619 24.1895 145.527 16.0938 135.544 16.0938C125.561 16.0938 117.468 24.1895 117.468 34.1761C117.468 44.1626 125.561 52.2584 135.544 52.2584Z" fill="url(#paint35_linear_2396_123865)"/>
<path d="M301.259 198.386C311.242 198.386 319.335 190.29 319.335 180.303C319.335 170.317 311.242 162.221 301.259 162.221C291.276 162.221 283.184 170.317 283.184 180.303C283.184 190.29 291.276 198.386 301.259 198.386Z" fill="url(#paint36_linear_2396_123865)"/>
<path d="M325.924 132.977C335.907 132.977 344 124.881 344 114.895C344 104.908 335.907 96.8125 325.924 96.8125C315.941 96.8125 307.849 104.908 307.849 114.895C307.849 124.881 315.941 132.977 325.924 132.977Z" fill="url(#paint37_linear_2396_123865)"/>
<path d="M122.392 174.535C133.643 174.535 142.764 165.411 142.764 154.156C142.764 142.901 133.643 133.777 122.392 133.777C111.141 133.777 102.021 142.901 102.021 154.156C102.021 165.411 111.141 174.535 122.392 174.535Z" fill="url(#paint38_linear_2396_123865)"/>
<path d="M223.351 32.9836C232.337 32.9836 239.622 25.6959 239.622 16.7062C239.622 7.71637 232.337 0.428711 223.351 0.428711C214.364 0.428711 207.079 7.71637 207.079 16.7062C207.079 25.6959 214.364 32.9836 223.351 32.9836Z" fill="url(#paint39_linear_2396_123865)"/>
<path d="M98.5391 106.29C107.944 106.29 115.567 98.6635 115.567 89.2556C115.567 79.8478 107.944 72.2212 98.5391 72.2212C89.1346 72.2212 81.5107 79.8478 81.5107 89.2556C81.5107 98.6635 89.1346 106.29 98.5391 106.29Z" fill="url(#paint40_linear_2396_123865)"/>
<path d="M293.98 61.7648C302.367 61.7648 309.166 54.9636 309.166 46.5738C309.166 38.1841 302.367 31.3828 293.98 31.3828C285.594 31.3828 278.795 38.1841 278.795 46.5738C278.795 54.9636 285.594 61.7648 293.98 61.7648Z" fill="url(#paint41_linear_2396_123865)"/>
<path d="M252.376 228.21C262.359 228.21 270.451 220.114 270.451 210.128C270.451 200.141 262.359 192.045 252.376 192.045C242.393 192.045 234.3 200.141 234.3 210.128C234.3 220.114 242.393 228.21 252.376 228.21Z" fill="#D8D8D8"/>
<path d="M211.447 120.296L176.611 195.795" stroke="#A5A5A5" stroke-miterlimit="10"/>
<path d="M214.305 139.25C227.311 139.25 237.855 128.703 237.855 115.692C237.855 102.681 227.311 92.134 214.305 92.134C201.299 92.134 190.756 102.681 190.756 115.692C190.756 128.703 201.299 139.25 214.305 139.25Z" fill="url(#paint42_linear_2396_123865)"/>
<path d="M219.043 131.608H219.031C219.037 131.648 219.043 131.69 219.045 131.736C219.051 132.861 216.94 133.774 214.328 133.774C211.714 133.774 209.595 132.863 209.59 131.736C209.59 131.69 209.597 131.648 209.603 131.608H209.59L209.569 127.596C210.607 128.241 212.342 128.667 214.302 128.667C216.262 128.667 217.994 128.242 219.024 127.596L219.043 131.608Z" fill="url(#paint43_linear_2396_123865)"/>
<path d="M219.678 129.917H219.663C219.671 129.962 219.679 130.01 219.679 130.063C219.686 131.343 217.289 132.378 214.32 132.378C211.351 132.378 208.944 131.343 208.938 130.063C208.938 130.01 208.944 129.962 208.952 129.917H208.938L208.915 125.359C210.094 126.092 212.066 126.574 214.292 126.574C216.519 126.574 218.486 126.092 219.657 125.359L219.678 129.917Z" fill="url(#paint44_linear_2396_123865)"/>
<path d="M226.149 111.492C226.17 115.684 224.037 119.369 220.791 121.508L220.803 123.583H220.783C220.791 123.639 220.803 123.699 220.803 123.758C220.806 124.353 220.38 124.903 219.654 125.359C218.483 126.092 216.516 126.574 214.289 126.574C212.063 126.574 210.091 126.092 208.912 125.359C208.183 124.903 207.751 124.353 207.747 123.758C207.747 123.699 207.759 123.639 207.765 123.583H207.746L207.736 121.508C204.47 119.369 202.299 115.684 202.278 111.492C202.245 104.885 207.563 99.5286 214.153 99.5286C220.743 99.5286 226.116 104.887 226.149 111.492Z" fill="white"/>
<path d="M214.294 127.41C212.068 127.41 210.096 126.928 208.917 126.195L208.92 126.918C210.099 127.651 212.071 128.133 214.297 128.133C216.524 128.133 218.491 127.651 219.662 126.918L219.659 126.195C218.487 126.928 216.521 127.41 214.294 127.41Z" fill="url(#paint45_linear_2396_123865)"/>
<path d="M214.302 128.94C212.075 128.94 210.104 128.458 208.925 127.725L208.928 128.448C210.107 129.181 212.079 129.663 214.305 129.663C216.532 129.663 218.499 129.181 219.67 128.448L219.667 127.725C218.495 128.458 216.529 128.94 214.302 128.94Z" fill="url(#paint46_linear_2396_123865)"/>
<path d="M214.31 130.47C212.083 130.47 210.112 129.988 208.933 129.255L208.936 129.978C210.115 130.711 212.086 131.193 214.313 131.193C216.54 131.193 218.506 130.711 219.678 129.978L219.674 129.255C218.503 129.988 216.537 130.47 214.31 130.47Z" fill="url(#paint47_linear_2396_123865)"/>
<path d="M220.445 109.149C220.319 108.546 219.879 108.085 219.349 108.002C218.941 107.939 218.134 108.05 217.307 109.533C217.172 109.776 217.059 110.133 216.968 110.578C216.078 110.575 212.322 110.575 211.43 110.578C211.333 110.133 211.218 109.776 211.081 109.533C210.239 108.05 209.431 107.939 209.023 108.002C208.493 108.085 208.058 108.546 207.939 109.149C207.831 109.696 208.032 110.202 208.463 110.47C209.014 110.812 210.056 110.931 211.131 110.947C211.885 115.081 211.215 126.044 211.207 126.169L211.579 126.195C211.611 125.688 212.251 115.211 211.504 110.951C212.583 110.946 215.821 110.946 216.9 110.951C216.197 115.211 216.942 125.688 216.977 126.195L217.35 126.169C217.341 126.044 216.561 115.081 217.273 110.947C218.346 110.931 219.389 110.812 219.937 110.47C220.363 110.202 220.559 109.696 220.445 109.149ZM208.659 110.154C208.36 109.967 208.228 109.62 208.305 109.225C208.393 108.781 208.713 108.431 209.084 108.371C209.126 108.365 209.166 108.362 209.208 108.362C209.712 108.362 210.257 108.836 210.758 109.716C210.874 109.919 210.972 110.21 211.056 110.575C210.068 110.557 209.136 110.449 208.659 110.154ZM219.736 110.154C219.262 110.451 218.33 110.559 217.344 110.575C217.424 110.211 217.519 109.919 217.631 109.716C218.123 108.836 218.663 108.362 219.167 108.362C219.209 108.362 219.249 108.365 219.291 108.371C219.662 108.431 219.987 108.781 220.078 109.225C220.162 109.62 220.033 109.967 219.736 110.154Z" fill="url(#paint48_linear_2396_123865)"/>
<path d="M244.651 207.998H241.354V214.52H244.651V207.998Z" fill="#696B7F"/>
<path d="M250.703 205.068H247.406V214.52H250.703V205.068Z" fill="#696B7F"/>
<path d="M256.756 200.012H253.459V214.52H256.756V200.012Z" fill="#696B7F"/>
<path d="M262.809 204.115H259.513V214.52H262.809V204.115Z" fill="#696B7F"/>
<path d="M302.222 178.19C302.283 177.88 302.313 177.562 302.313 177.234C302.313 176.906 302.283 176.586 302.222 176.274H301.253C301.149 175.826 300.972 175.408 300.736 175.027L301.423 174.339C301.059 173.807 300.597 173.349 300.069 172.988L299.381 173.675C299.002 173.439 298.583 173.262 298.135 173.158V172.189C297.824 172.128 297.506 172.097 297.179 172.097C296.851 172.097 296.534 172.128 296.223 172.189V173.158C295.774 173.262 295.354 173.441 294.973 173.677L294.285 172.989C293.757 173.351 293.295 173.812 292.934 174.341L293.622 175.029C293.385 175.408 293.209 175.827 293.104 176.276H292.136C292.074 176.586 292.044 176.907 292.044 177.235C292.044 177.563 292.074 177.88 292.136 178.192H293.104C293.209 178.64 293.385 179.059 293.622 179.439L292.934 180.127C293.295 180.655 293.757 181.117 294.285 181.481L294.973 180.794C295.354 181.03 295.773 181.207 296.223 181.313V182.282C296.533 182.343 296.851 182.373 297.179 182.373C297.506 182.373 297.823 182.343 298.135 182.282V181.313C298.583 181.208 299.002 181.031 299.381 180.795L300.069 181.483C300.601 181.121 301.062 180.66 301.423 180.128L300.736 179.44C300.972 179.061 301.149 178.642 301.253 178.193H302.222V178.19ZM297.18 179.754C295.789 179.754 294.661 178.625 294.661 177.234C294.661 175.842 295.789 174.714 297.18 174.714C298.572 174.714 299.699 175.842 299.699 177.234C299.699 178.625 298.572 179.754 297.18 179.754Z" fill="white"/>
<path d="M312.363 183.919C312.431 183.579 312.464 183.23 312.464 182.87C312.464 182.51 312.431 182.158 312.363 181.817H311.299C311.184 181.326 310.991 180.866 310.732 180.45L311.487 179.694C311.087 179.109 310.581 178.608 310.001 178.211L309.248 178.965C308.832 178.706 308.371 178.511 307.879 178.397V177.335C307.538 177.267 307.19 177.234 306.83 177.234C306.47 177.234 306.121 177.267 305.781 177.335V178.397C305.288 178.513 304.827 178.707 304.409 178.966L303.654 178.211C303.074 178.608 302.568 179.114 302.171 179.694L302.926 180.45C302.667 180.866 302.473 181.326 302.357 181.817H301.294C301.226 182.158 301.192 182.51 301.192 182.87C301.192 183.23 301.226 183.577 301.294 183.919H302.357C302.471 184.411 302.666 184.873 302.924 185.289L302.171 186.043C302.568 186.623 303.074 187.129 303.654 187.529L304.409 186.774C304.827 187.034 305.288 187.229 305.781 187.343V188.405C306.121 188.473 306.47 188.506 306.83 188.506C307.19 188.506 307.538 188.473 307.879 188.405V187.343C308.371 187.227 308.832 187.034 309.248 186.775L310.001 187.529C310.586 187.132 311.091 186.626 311.487 186.043L310.734 185.289C310.993 184.871 311.187 184.411 311.301 183.919H312.363ZM306.83 185.638C305.302 185.638 304.065 184.398 304.065 182.872C304.065 181.343 305.304 180.106 306.83 180.106C308.358 180.106 309.595 181.345 309.595 182.872C309.595 184.398 308.356 185.638 306.83 185.638Z" fill="white"/>
<path d="M321.6 110.395C321.368 111.296 325.926 118.262 325.926 118.262C325.926 118.262 330.484 111.296 330.253 110.395C330.253 110.393 330.251 110.393 330.251 110.393C330.328 110.064 330.375 109.723 330.375 109.369C330.375 106.912 328.383 104.919 325.926 104.919C323.47 104.919 321.478 106.912 321.478 109.369C321.478 109.723 321.523 110.064 321.6 110.393C321.6 110.391 321.6 110.393 321.6 110.395ZM325.925 107.228C326.897 107.228 327.685 108.018 327.685 108.99C327.685 109.962 326.897 110.751 325.925 110.751C324.953 110.751 324.164 109.962 324.164 108.99C324.164 108.018 324.953 107.228 325.925 107.228Z" fill="white"/>
<path d="M325.925 118.77C322.846 118.77 320.35 119.914 320.35 121.323C320.35 122.734 322.846 123.877 325.925 123.877C329.003 123.877 331.499 122.733 331.499 121.323C331.499 119.912 329.004 118.77 325.925 118.77Z" fill="white"/>
<path d="M287.058 46.5739C288.51 46.5739 289.688 45.396 289.688 43.943C289.688 42.4899 288.51 41.312 287.058 41.312C285.605 41.312 284.428 42.4899 284.428 43.943C284.428 45.396 285.605 46.5739 287.058 46.5739Z" fill="white"/>
<path d="M297.702 54.3447C297.936 52.9105 296.963 51.5583 295.53 51.3243C294.096 51.0904 292.744 52.0634 292.51 53.4975C292.276 54.9316 293.249 56.2839 294.683 56.5178C296.116 56.7518 297.468 55.7788 297.702 54.3447Z" fill="white"/>
<path d="M301.949 43.5202C303.402 43.5202 304.579 42.3423 304.579 40.8892C304.579 39.4362 303.402 38.2583 301.949 38.2583C300.497 38.2583 299.319 39.4362 299.319 40.8892C299.319 42.3423 300.497 43.5202 301.949 43.5202Z" fill="white"/>
<path d="M287.942 44.928L295.105 53.9346L301.949 40.8892" stroke="#FDFDFF" stroke-width="3" stroke-miterlimit="10"/>
<path d="M230.81 11.1228H215.893C215.398 11.1228 214.998 11.523 214.998 12.018V21.8764C214.998 22.3714 215.398 22.7716 215.893 22.7716H230.81C231.305 22.7716 231.705 22.3714 231.705 21.8764V12.018C231.705 11.523 231.303 11.1228 230.81 11.1228ZM223.351 16.9472L215.655 11.7351L223.351 15.1745L231.046 11.7351L223.351 16.9472Z" fill="white"/>
<path d="M142.353 26.1548H128.519C127.834 26.1548 127.278 26.7109 127.278 27.3955V35.4909C127.278 36.1755 127.833 36.7316 128.519 36.7316H142.353C143.037 36.7316 143.593 36.1755 143.593 35.4909V27.3955C143.593 26.7109 143.037 26.1548 142.353 26.1548ZM142.809 34.9814C142.809 35.666 142.255 36.2221 141.569 36.2221H129.301C128.617 36.2221 128.061 35.666 128.061 34.9814V27.9018C128.061 27.2171 128.617 26.661 129.301 26.661H141.569C142.253 26.661 142.809 27.2155 142.809 27.9018V34.9814Z" fill="white"/>
<path d="M145.859 41.3153L143.232 37.2105C143.036 36.9036 142.697 36.7188 142.332 36.7188H135.437H128.54C128.175 36.7188 127.836 36.9036 127.64 37.2105L125.013 41.3153C124.806 41.6399 125.039 42.0642 125.423 42.0642H135.435H145.447C145.833 42.0658 146.066 41.6399 145.859 41.3153ZM127.855 39.5409L128.925 37.5497H142.07L143.224 39.5409H127.855Z" fill="white"/>
<path d="M124.465 144.129H113.024C112.582 144.129 112.226 144.488 112.226 144.928V161.035C112.226 161.477 112.584 161.834 113.024 161.834H124.465C124.906 161.834 125.263 161.475 125.263 161.035V144.928C125.263 144.486 124.906 144.129 124.465 144.129ZM123.43 158.645H114.057V157.789H123.43V158.645ZM123.43 156.551H114.057V155.694H123.43V156.551ZM123.43 154.457H114.057V153.6H123.43V154.457ZM123.43 152.363H114.057V151.506H123.43V152.363ZM123.43 150.269H114.057V149.412H123.43V150.269ZM123.43 148.174H114.057V147.318H123.43V148.174Z" fill="white"/>
<path d="M134.663 148.591H126.106C125.777 148.591 125.509 148.859 125.509 149.188V161.236C125.509 161.565 125.775 161.834 126.106 161.834H134.663C134.994 161.834 135.261 161.565 135.261 161.236V149.188C135.261 148.859 134.993 148.591 134.663 148.591ZM133.89 159.449H126.879V158.807H133.89V159.449ZM133.89 157.883H126.879V157.242H133.89V157.883ZM133.89 156.316H126.879V155.675H133.89V156.316ZM133.89 154.749H126.879V154.108H133.89V154.749ZM133.89 153.184H126.879V152.543H133.89V153.184ZM133.89 151.617H126.879V150.976H133.89V151.617Z" fill="white"/>
<path d="M107.489 88.444C109.496 85.7118 108.906 81.8691 106.175 79.8617C103.444 77.8543 99.6022 78.4442 97.5955 81.1764C96.005 83.3444 96.0516 86.2068 97.4991 88.301C97.475 88.3235 97.4525 88.3476 97.4317 88.3749L96.7601 89.2894C96.6043 89.5015 96.6509 89.7988 96.8613 89.9547L97.0686 90.1058L91.0342 98.3265L93.0938 99.8389L99.1282 91.6182L99.3355 91.7692C99.5475 91.9251 99.8448 91.8785 100.001 91.668L100.672 90.7535C100.693 90.7262 100.709 90.6973 100.722 90.6667C103.153 91.4237 105.897 90.6121 107.489 88.444ZM99.5427 88.8972C97.2871 87.2402 96.8003 84.0661 98.4567 81.8096C100.113 79.5531 103.286 79.0662 105.542 80.7231C107.797 82.3801 108.284 85.5543 106.628 87.8108C104.971 90.0689 101.798 90.5542 99.5427 88.8972Z" fill="white"/>
<defs>
<linearGradient id="paint0_linear_2396_123865" x1="140.442" y1="345.319" x2="93.7322" y2="248.527" gradientUnits="userSpaceOnUse">
<stop stop-color="white"/>
<stop offset="1" stop-color="#E4E6EB"/>
</linearGradient>
<linearGradient id="paint1_linear_2396_123865" x1="149.01" y1="277.553" x2="190.036" y2="277.553" gradientUnits="userSpaceOnUse">
<stop stop-color="#C6C9D4"/>
<stop offset="1" stop-color="#F4F5F7"/>
</linearGradient>
<linearGradient id="paint2_linear_2396_123865" x1="165.493" y1="275.997" x2="174.953" y2="275.997" gradientUnits="userSpaceOnUse">
<stop stop-color="#C6C9D4"/>
<stop offset="1" stop-color="#F4F5F7"/>
</linearGradient>
<linearGradient id="paint3_linear_2396_123865" x1="167.843" y1="269.458" x2="172.603" y2="269.458" gradientUnits="userSpaceOnUse">
<stop stop-color="#C6C9D4"/>
<stop offset="1" stop-color="#F4F5F7"/>
</linearGradient>
<linearGradient id="paint4_linear_2396_123865" x1="165.493" y1="260.596" x2="174.953" y2="260.596" gradientUnits="userSpaceOnUse">
<stop stop-color="#C6C9D4"/>
<stop offset="1" stop-color="#F4F5F7"/>
</linearGradient>
<linearGradient id="paint5_linear_2396_123865" x1="194.97" y1="228.547" x2="159.681" y2="228.547" gradientUnits="userSpaceOnUse">
<stop stop-color="#878AA0"/>
<stop offset="0.99" stop-color="#B7BCBC"/>
</linearGradient>
<linearGradient id="paint6_linear_2396_123865" x1="127.093" y1="198.892" x2="164.375" y2="198.892" gradientUnits="userSpaceOnUse">
<stop stop-color="#1D7ECE"/>
<stop offset="1" stop-color="#17538C"/>
</linearGradient>
<linearGradient id="paint7_linear_2396_123865" x1="163.632" y1="216.029" x2="183.51" y2="216.029" gradientUnits="userSpaceOnUse">
<stop stop-color="#1D7ECE"/>
<stop offset="1" stop-color="#17538C"/>
</linearGradient>
<linearGradient id="paint8_linear_2396_123865" x1="43.4511" y1="313.305" x2="83.9521" y2="313.305" gradientUnits="userSpaceOnUse">
<stop stop-color="#C6C9D4"/>
<stop offset="1" stop-color="#F4F5F7"/>
</linearGradient>
<linearGradient id="paint9_linear_2396_123865" x1="59.7233" y1="311.768" x2="69.0627" y2="311.768" gradientUnits="userSpaceOnUse">
<stop stop-color="#C6C9D4"/>
<stop offset="1" stop-color="#F4F5F7"/>
</linearGradient>
<linearGradient id="paint10_linear_2396_123865" x1="62.0436" y1="305.314" x2="66.7426" y2="305.314" gradientUnits="userSpaceOnUse">
<stop stop-color="#C6C9D4"/>
<stop offset="1" stop-color="#F4F5F7"/>
</linearGradient>
<linearGradient id="paint11_linear_2396_123865" x1="59.7233" y1="296.565" x2="69.0627" y2="296.565" gradientUnits="userSpaceOnUse">
<stop stop-color="#C6C9D4"/>
<stop offset="1" stop-color="#F4F5F7"/>
</linearGradient>
<linearGradient id="paint12_linear_2396_123865" x1="129.088" y1="315.909" x2="121.523" y2="314.264" gradientUnits="userSpaceOnUse">
<stop offset="0.012" stop-color="#DFE1E5"/>
<stop offset="1" stop-color="#ACB0BC"/>
</linearGradient>
<linearGradient id="paint13_linear_2396_123865" x1="177.48" y1="286.91" x2="169.916" y2="285.264" gradientUnits="userSpaceOnUse">
<stop offset="0.012" stop-color="#DFE1E5"/>
<stop offset="1" stop-color="#ACB0BC"/>
</linearGradient>
<linearGradient id="paint14_linear_2396_123865" x1="47.1703" y1="268.289" x2="39.6058" y2="266.643" gradientUnits="userSpaceOnUse">
<stop offset="0.012" stop-color="#DFE1E5"/>
<stop offset="1" stop-color="#ACB0BC"/>
</linearGradient>
<linearGradient id="paint15_linear_2396_123865" x1="154.654" y1="260.979" x2="73.0003" y2="243.215" gradientUnits="userSpaceOnUse">
<stop stop-color="#9CA1AF"/>
<stop offset="1" stop-color="#E4E6EB"/>
</linearGradient>
<linearGradient id="paint16_linear_2396_123865" x1="77.0474" y1="276.803" x2="133.64" y2="224.11" gradientUnits="userSpaceOnUse">
<stop stop-color="white"/>
<stop offset="1" stop-color="#E4E6EB"/>
</linearGradient>
<linearGradient id="paint17_linear_2396_123865" x1="43.6179" y1="258.85" x2="76.8528" y2="258.85" gradientUnits="userSpaceOnUse">
<stop stop-color="#1D7ECE"/>
<stop offset="1" stop-color="#17538C"/>
</linearGradient>
<linearGradient id="paint18_linear_2396_123865" x1="34.4127" y1="276.481" x2="95.8093" y2="276.481" gradientUnits="userSpaceOnUse">
<stop stop-color="#C6C9D4"/>
<stop offset="1" stop-color="#F4F5F7"/>
</linearGradient>
<linearGradient id="paint19_linear_2396_123865" x1="56.7762" y1="240.787" x2="59.5913" y2="237.043" gradientUnits="userSpaceOnUse">
<stop stop-color="white"/>
<stop offset="1" stop-color="#E4E6EB"/>
</linearGradient>
<linearGradient id="paint20_linear_2396_123865" x1="68.6692" y1="247.92" x2="76.0142" y2="247.92" gradientUnits="userSpaceOnUse">
<stop stop-color="#1D7ECE"/>
<stop offset="1" stop-color="#17538C"/>
</linearGradient>
<linearGradient id="paint21_linear_2396_123865" x1="65.6449" y1="260.064" x2="95.2564" y2="260.064" gradientUnits="userSpaceOnUse">
<stop stop-color="#1D7ECE"/>
<stop offset="1" stop-color="#17538C"/>
</linearGradient>
<linearGradient id="paint22_linear_2396_123865" x1="30.2468" y1="190.062" x2="84.3346" y2="122.207" gradientUnits="userSpaceOnUse">
<stop stop-color="#474747"/>
<stop offset="1" stop-color="#595959"/>
</linearGradient>
<linearGradient id="paint23_linear_2396_123865" x1="117.006" y1="126.357" x2="2.33297" y2="126.357" gradientUnits="userSpaceOnUse">
<stop stop-color="#474747"/>
<stop offset="1" stop-color="#595959"/>
</linearGradient>
<linearGradient id="paint24_linear_2396_123865" x1="113.55" y1="105.418" x2="5.78882" y2="105.418" gradientUnits="userSpaceOnUse">
<stop stop-color="#1D7ECE"/>
<stop offset="1" stop-color="#17538C"/>
</linearGradient>
<linearGradient id="paint25_linear_2396_123865" x1="70.7211" y1="152.582" x2="108.266" y2="152.582" gradientUnits="userSpaceOnUse">
<stop stop-color="#FFAC06"/>
<stop offset="1" stop-color="#F7741A"/>
</linearGradient>
<linearGradient id="paint26_linear_2396_123865" x1="66.2714" y1="184.089" x2="82.9395" y2="184.089" gradientUnits="userSpaceOnUse">
<stop stop-color="#1D7ECE"/>
<stop offset="1" stop-color="#17538C"/>
</linearGradient>
<linearGradient id="paint27_linear_2396_123865" x1="88.3851" y1="170.17" x2="105.053" y2="170.17" gradientUnits="userSpaceOnUse">
<stop stop-color="#FFAC06"/>
<stop offset="1" stop-color="#F7741A"/>
</linearGradient>
<linearGradient id="paint28_linear_2396_123865" x1="21.8964" y1="165.406" x2="33.8945" y2="175.887" gradientUnits="userSpaceOnUse">
<stop stop-color="#FFAC06"/>
<stop offset="1" stop-color="#F7741A"/>
</linearGradient>
<linearGradient id="paint29_linear_2396_123865" x1="28.3661" y1="158" x2="40.3642" y2="168.481" gradientUnits="userSpaceOnUse">
<stop stop-color="#FFAC06"/>
<stop offset="1" stop-color="#F7741A"/>
</linearGradient>
<linearGradient id="paint30_linear_2396_123865" x1="34.8658" y1="150.56" x2="46.8638" y2="161.041" gradientUnits="userSpaceOnUse">
<stop stop-color="#FFAC06"/>
<stop offset="1" stop-color="#F7741A"/>
</linearGradient>
<linearGradient id="paint31_linear_2396_123865" x1="41.3629" y1="143.123" x2="53.3609" y2="153.604" gradientUnits="userSpaceOnUse">
<stop stop-color="#FFAC06"/>
<stop offset="1" stop-color="#F7741A"/>
</linearGradient>
<linearGradient id="paint32_linear_2396_123865" x1="47.7101" y1="135.857" x2="59.7082" y2="146.338" gradientUnits="userSpaceOnUse">
<stop stop-color="#FFAC06"/>
<stop offset="1" stop-color="#F7741A"/>
</linearGradient>
<linearGradient id="paint33_linear_2396_123865" x1="16.5515" y1="212.826" x2="40.1933" y2="212.826" gradientUnits="userSpaceOnUse">
<stop stop-color="#1D7ECE"/>
<stop offset="1" stop-color="#17538C"/>
</linearGradient>
<linearGradient id="paint34_linear_2396_123865" x1="30.8219" y1="205.32" x2="44.3368" y2="205.32" gradientUnits="userSpaceOnUse">
<stop stop-color="#FFAC06"/>
<stop offset="1" stop-color="#F7741A"/>
</linearGradient>
<linearGradient id="paint35_linear_2396_123865" x1="117.468" y1="34.1762" x2="153.618" y2="34.1762" gradientUnits="userSpaceOnUse">
<stop stop-color="#1D7ECE"/>
<stop offset="1" stop-color="#17538C"/>
</linearGradient>
<linearGradient id="paint36_linear_2396_123865" x1="283.185" y1="180.303" x2="319.335" y2="180.303" gradientUnits="userSpaceOnUse">
<stop stop-color="#1D7ECE"/>
<stop offset="1" stop-color="#17538C"/>
</linearGradient>
<linearGradient id="paint37_linear_2396_123865" x1="307.85" y1="114.895" x2="344" y2="114.895" gradientUnits="userSpaceOnUse">
<stop stop-color="#FFAC06"/>
<stop offset="1" stop-color="#F7741A"/>
</linearGradient>
<linearGradient id="paint38_linear_2396_123865" x1="102.02" y1="154.157" x2="142.764" y2="154.157" gradientUnits="userSpaceOnUse">
<stop stop-color="#1D7ECE"/>
<stop offset="1" stop-color="#17538C"/>
</linearGradient>
<linearGradient id="paint39_linear_2396_123865" x1="207.078" y1="16.7069" x2="239.623" y2="16.7069" gradientUnits="userSpaceOnUse">
<stop stop-color="#FFAC06"/>
<stop offset="1" stop-color="#F7741A"/>
</linearGradient>
<linearGradient id="paint40_linear_2396_123865" x1="81.5111" y1="89.2555" x2="115.568" y2="89.2555" gradientUnits="userSpaceOnUse">
<stop stop-color="#FFAC06"/>
<stop offset="1" stop-color="#F7741A"/>
</linearGradient>
<linearGradient id="paint41_linear_2396_123865" x1="278.796" y1="46.5735" x2="309.166" y2="46.5735" gradientUnits="userSpaceOnUse">
<stop stop-color="#1D7ECE"/>
<stop offset="1" stop-color="#17538C"/>
</linearGradient>
<linearGradient id="paint42_linear_2396_123865" x1="190.756" y1="115.692" x2="237.855" y2="115.692" gradientUnits="userSpaceOnUse">
<stop stop-color="#FFAC06"/>
<stop offset="1" stop-color="#F7741A"/>
</linearGradient>
<linearGradient id="paint43_linear_2396_123865" x1="209.582" y1="130.685" x2="219.039" y2="130.641" gradientUnits="userSpaceOnUse">
<stop stop-color="#C7C2C2"/>
<stop offset="1" stop-color="#868585"/>
</linearGradient>
<linearGradient id="paint44_linear_2396_123865" x1="208.93" y1="128.869" x2="219.673" y2="128.819" gradientUnits="userSpaceOnUse">
<stop stop-color="#D3CDCD"/>
<stop offset="0.99" stop-color="#F6F5F5"/>
</linearGradient>
<linearGradient id="paint45_linear_2396_123865" x1="208.922" y1="127.164" x2="219.664" y2="127.114" gradientUnits="userSpaceOnUse">
<stop stop-color="#C7C2C2"/>
<stop offset="1" stop-color="#868585"/>
</linearGradient>
<linearGradient id="paint46_linear_2396_123865" x1="208.93" y1="128.694" x2="219.671" y2="128.645" gradientUnits="userSpaceOnUse">
<stop stop-color="#C7C2C2"/>
<stop offset="1" stop-color="#868585"/>
</linearGradient>
<linearGradient id="paint47_linear_2396_123865" x1="208.937" y1="130.224" x2="219.679" y2="130.175" gradientUnits="userSpaceOnUse">
<stop stop-color="#C7C2C2"/>
<stop offset="1" stop-color="#868585"/>
</linearGradient>
<linearGradient id="paint48_linear_2396_123865" x1="207.91" y1="117.092" x2="220.476" y2="117.092" gradientUnits="userSpaceOnUse">
<stop stop-color="#C7C2C2"/>
<stop offset="1" stop-color="#868585"/>
</linearGradient>
</defs>
</svg>
