<svg width="18" height="18" viewBox="0 0 18 18" fill="none" xmlns="http://www.w3.org/2000/svg">
<path d="M14.4518 6.2252C14.909 5.76973 15.3585 5.32147 15.8069 4.87474C17.6067 7.4578 17.8985 12.0506 14.8075 15.3176C11.6299 18.6763 6.47362 18.8466 3.09091 16.0191C-0.561883 12.9651 -0.927832 7.75939 1.73226 4.27569C4.62841 0.483193 9.66717 -0.0160224 13.0988 2.16714C13.0607 2.21038 13.0257 2.25361 12.987 2.29272C12.6102 2.66996 12.2304 3.04463 11.8572 3.42548C11.7742 3.51039 11.7134 3.53252 11.5969 3.47437C7.60858 1.47596 2.85227 3.8125 1.99822 8.18655C1.28951 11.8144 3.76714 15.3989 7.41014 16.0165C11.0011 16.6253 14.373 14.3567 15.1275 10.8C15.4517 9.2735 15.2471 7.80056 14.541 6.40276C14.509 6.34048 14.4781 6.27769 14.4518 6.2252Z" fill="#1B3468"/>
<path d="M10.5498 4.73951C10.0602 5.22534 9.58959 5.69934 9.10664 6.16047C9.04788 6.21657 8.91851 6.22017 8.82471 6.21348C7.25267 6.1018 5.84866 7.09972 5.44354 8.62258C4.97451 10.3837 6.07802 12.1855 7.87427 12.5921C9.6401 12.992 11.4229 11.8335 11.7456 10.0605C11.8023 9.74916 11.794 9.42339 11.7884 9.10481C11.7858 8.94784 11.8028 8.83308 11.9244 8.71625C12.3687 8.28909 12.7991 7.84803 13.2372 7.40954C13.9217 8.66427 14.0274 11.2242 12.194 13.0507C10.3169 14.9204 7.33668 15.0578 5.30283 13.3646C3.26795 11.6709 2.85716 8.69824 4.3627 6.53977C5.94659 4.2686 8.71389 3.90371 10.5498 4.73951Z" fill="#1B3468"/>
<path d="M16.1746 0.0499215C16.24 0.526492 16.3106 1.00255 16.3668 1.48015C16.3818 1.60521 16.4313 1.63197 16.5457 1.64535C17.0224 1.70196 17.4977 1.77093 17.9997 1.83886C17.9471 1.89908 17.9131 1.94334 17.8739 1.98194C17.2425 2.61342 16.6086 3.24284 15.9803 3.87741C15.8947 3.96387 15.8153 4.00865 15.6942 3.97108C15.2545 3.83521 14.9391 3.96336 14.6056 4.30766C13.1882 5.77031 11.7342 7.19745 10.2895 8.63282C10.1895 8.73215 10.1668 8.81192 10.2075 8.94831C10.4338 9.70022 10.1163 10.4933 9.44265 10.8911C8.78034 11.2823 7.93144 11.1752 7.38148 10.6307C6.82534 10.08 6.71659 9.22931 7.11707 8.5582C7.51807 7.88606 8.30976 7.57367 9.06485 7.80166C9.19473 7.84077 9.27102 7.8207 9.36482 7.72703C10.907 6.17946 12.4517 4.63498 13.9995 3.09308C14.0861 3.00713 14.1304 2.92376 14.1005 2.80539C14.099 2.79921 14.1005 2.792 14.0985 2.78634C13.9309 2.31646 14.1211 1.99532 14.4757 1.6788C15.0071 1.20481 15.4911 0.677801 15.9931 0.170865C16.0416 0.121973 16.0736 0.0576414 16.1127 0C16.1333 0.0174983 16.154 0.0334526 16.1746 0.0499215Z" fill="#1B3468"/>
</svg>
