<svg width="11" height="11" viewBox="0 0 11 11" fill="none" xmlns="http://www.w3.org/2000/svg">
<path d="M3.26562 5.5C4.11994 5.5 4.8125 4.80744 4.8125 3.95312C4.8125 3.09881 4.11994 2.40625 3.26562 2.40625C2.41131 2.40625 1.71875 3.09881 1.71875 3.95312C1.71875 4.80744 2.41131 5.5 3.26562 5.5Z" fill="#42434B"/>
<path d="M5.02734 6.35938C4.42234 6.05215 3.75461 5.92969 3.26562 5.92969C2.30785 5.92969 0.34375 6.51707 0.34375 7.69141V8.59375H3.56641V8.2485C3.56641 7.84029 3.73828 7.43102 4.03906 7.08984C4.27904 6.81742 4.61506 6.56455 5.02734 6.35938Z" fill="#42434B"/>
<path d="M7.30469 6.1875C6.186 6.1875 3.95312 6.87844 3.95312 8.25V9.28125H10.6562V8.25C10.6562 6.87844 8.42338 6.1875 7.30469 6.1875Z" fill="#42434B"/>
<path d="M7.30469 5.5C8.34885 5.5 9.19531 4.65354 9.19531 3.60938C9.19531 2.56521 8.34885 1.71875 7.30469 1.71875C6.26052 1.71875 5.41406 2.56521 5.41406 3.60938C5.41406 4.65354 6.26052 5.5 7.30469 5.5Z" fill="#42434B"/>
</svg>
