<svg width="22" height="24" viewBox="0 0 22 24" fill="none" xmlns="http://www.w3.org/2000/svg">
<g clip-path="url(#clip0_2546_8476)">
<path d="M3.51502 0C2.91885 0 2.34051 0.577698 2.34051 1.17073V4.39024H4.07518C4.68615 4.38146 5.2481 4.94239 5.2481 5.56098C5.2481 6.17956 4.68615 6.74046 4.07518 6.73171H2.34051V10.8293H4.07518C4.68615 10.8205 5.2481 11.3814 5.2481 12C5.2481 12.6186 4.68615 13.1795 4.07518 13.1707H2.34051V17.2683H4.07518C4.68615 17.2595 5.2481 17.8204 5.2481 18.439C5.2481 19.0576 4.68615 19.6185 4.07518 19.6098H2.34051V22.8384C2.34051 23.4088 2.91885 23.9999 3.51502 24H19.7052C20.2672 23.9999 20.8435 23.4103 20.8436 22.8659V19.6098H22V17.2683H20.8436V13.1707H22V10.8293H20.8436V6.73171H22V4.39024H20.8436V1.17073C20.8436 0.585366 20.2653 0 19.6871 0H3.51502ZM9.47792 4.68293C9.91439 4.65158 10.4686 4.89263 10.7428 5.38718C11.2553 6.60161 11.7252 7.82011 12.1341 8.88111C12.1831 9.11599 12.074 9.41938 11.9263 9.56707C11.7786 9.71476 11.6413 9.77101 11.5107 9.81401C10.8483 10.0069 10.2865 9.92493 9.67667 10.0701C9.33428 10.285 9.26602 10.4385 9.26108 10.7104C9.25586 10.9933 9.40054 11.4418 9.69473 11.9725C10.0827 12.6872 10.4897 13.3957 10.8692 14.1127C11.1637 14.6421 11.4637 15.0003 11.6824 15.128C11.8924 15.2506 12.0235 15.2634 12.369 15.064C12.8003 14.5732 13.0625 13.9402 13.4893 13.5182C13.5884 13.4218 13.7032 13.3256 13.9049 13.2621C14.1066 13.1987 14.4413 13.2589 14.6187 13.4267C15.4516 14.5211 16.2287 15.6637 16.9044 16.6371C17.1743 17.1988 17.0913 17.6307 16.7418 18.0914C16.503 18.342 16.182 18.5194 15.9106 18.6858C14.7719 19.3706 13.3651 19.5168 12.0166 19.0151C10.6682 18.5133 9.38532 17.3811 8.38469 15.5761L7.21924 13.4632C5.21444 9.84675 6.12457 6.44247 8.41182 5.06689C8.77899 4.9327 9.13851 4.7172 9.47792 4.68293ZM0.551651 4.97561C0.248891 4.98995 -0.0136617 5.28193 0.000551504 5.58843C0.0147357 5.89493 0.303109 6.16071 0.60587 6.14634H4.07518C4.3798 6.14927 4.65905 5.86938 4.65905 5.56098C4.65905 5.25258 4.3798 4.97262 4.07518 4.97561C2.90264 4.97561 1.72005 4.97561 0.551651 4.97561ZM0.551651 11.4146C0.248891 11.429 -0.0136617 11.721 0.000551504 12.0275C0.0147357 12.334 0.303109 12.5997 0.60587 12.5854H4.07518C4.3798 12.5883 4.65905 12.3084 4.65905 12C4.65905 11.6916 4.3798 11.4116 4.07518 11.4146C2.90264 11.4146 1.72005 11.4146 0.551651 11.4146ZM0.551651 17.8537C0.248891 17.868 -0.0136617 18.16 0.000551504 18.4665C0.0147357 18.773 0.303109 19.0388 0.60587 19.0244H4.07518C4.3798 19.0273 4.65905 18.7474 4.65905 18.439C4.65905 18.1306 4.3798 17.8507 4.07518 17.8537C2.90264 17.8537 1.72005 17.8537 0.551651 17.8537Z" fill="#3659A3"/>
</g>
<defs>
<clipPath id="clip0_2546_8476">
<rect width="22" height="24" fill="white"/>
</clipPath>
</defs>
</svg>
