<svg width="19" height="19" viewBox="0 0 19 19" fill="none" xmlns="http://www.w3.org/2000/svg">
<path d="M9.07559 18.1689C7.51185 18.1689 5.94761 18.1719 4.38387 18.1679C2.2908 18.1623 0.549611 16.7639 0.101673 14.7204C0.0374657 14.4272 0.00713131 14.1208 0.00662574 13.8205C-0.000452279 10.6677 -0.00247457 7.51496 0.0035923 4.3617C0.00864803 1.94153 1.93488 0.0117546 4.35455 0.00568769C7.50781 -0.0018959 10.6606 -0.0018959 13.8138 0.00568769C16.235 0.011249 18.1597 1.93799 18.1653 4.36069C18.1729 7.50738 18.1719 10.6541 18.1658 13.8007C18.1612 16.2341 16.237 18.1578 13.8052 18.1674C12.2288 18.1739 10.6525 18.1689 9.07559 18.1689ZM16.9565 9.08628C16.9565 7.52204 16.959 5.9578 16.956 4.39406C16.9524 2.59978 15.5717 1.21755 13.7779 1.21552C10.6494 1.213 7.52146 1.213 4.39297 1.21552C2.59971 1.21704 1.21545 2.6018 1.21393 4.39355C1.21141 7.52204 1.21141 10.65 1.21393 13.7785C1.21545 15.5703 2.5987 16.9555 4.39196 16.957C7.52045 16.9601 10.6484 16.9591 13.7769 16.9555C13.9837 16.9555 14.1945 16.9409 14.3967 16.9004C15.9155 16.5991 16.9529 15.3316 16.9554 13.7785C16.9585 12.2148 16.9565 10.6505 16.9565 9.08628Z" fill="#1B3468"/>
<path d="M8.82437 4.24213C8.74196 4.15416 8.68634 4.09804 8.63427 4.03839C8.42142 3.79268 8.42951 3.44333 8.65247 3.21481C8.87998 2.98123 9.24804 2.95949 9.48768 3.19054C9.91438 3.60157 10.3335 4.0212 10.745 4.4479C10.9655 4.67692 10.9619 5.02375 10.7395 5.25378C10.332 5.67543 9.91741 6.09051 9.49577 6.498C9.25613 6.73006 8.88857 6.71489 8.65904 6.48586C8.42951 6.25734 8.42193 5.89586 8.64286 5.64762C8.69191 5.59252 8.74499 5.53994 8.81527 5.46612C8.76319 5.45955 8.73539 5.45348 8.70707 5.45348C7.91888 5.45298 7.1307 5.44742 6.34251 5.455C5.58061 5.46258 4.96533 6.01973 4.85714 6.78314C4.75602 7.49853 5.22671 8.21543 5.94462 8.41513C6.11197 8.46164 6.29246 8.47732 6.46688 8.47782C8.03719 8.48237 9.6075 8.47833 11.1778 8.48136C12.5004 8.48389 13.5853 9.35903 13.8705 10.6457C14.233 12.2818 12.962 13.9072 11.2845 13.9254C9.7713 13.9421 8.25762 13.9319 6.74393 13.9264C6.60338 13.9259 6.53766 13.9663 6.478 14.0942C6.08416 14.936 5.14481 15.3389 4.27724 15.0482C3.40109 14.7545 2.89046 13.8687 3.06994 12.9516C3.24082 12.0795 4.07653 11.4395 4.97948 11.5148C5.67616 11.5729 6.18123 11.9354 6.48407 12.5659C6.53766 12.6771 6.58872 12.7231 6.71866 12.7226C8.20049 12.717 9.68232 12.7211 11.1647 12.7181C12.0439 12.716 12.7198 12.0522 12.7183 11.2013C12.7168 10.3515 12.0403 9.69322 11.1581 9.69221C9.5625 9.68968 7.96691 9.69524 6.37183 9.69018C4.81922 9.68513 3.60989 8.44193 3.63769 6.88931C3.66297 5.46865 4.85865 4.26589 6.27982 4.24466C7.05537 4.23303 7.83092 4.24163 8.60697 4.24163C8.66562 4.24213 8.72527 4.24213 8.82437 4.24213ZM4.8445 12.7196C4.51587 12.7206 4.24337 12.9926 4.24185 13.3212C4.24034 13.6498 4.51031 13.9249 4.83843 13.9294C5.17413 13.9335 5.45472 13.6539 5.45118 13.3182C5.44765 12.9901 5.17261 12.7186 4.8445 12.7196Z" fill="#1B3468"/>
<path d="M13.3204 6.66376C12.3229 6.66224 11.5059 5.84271 11.5074 4.84471C11.5089 3.84671 12.3279 3.03071 13.3264 3.03223C14.3254 3.03375 15.1404 3.85176 15.1389 4.85077C15.1379 5.84877 14.3194 6.66477 13.3204 6.66376ZM13.3305 4.24257C13.0014 4.23853 12.7248 4.50698 12.7182 4.8351C12.7117 5.17131 12.9887 5.45342 13.3249 5.45241C13.653 5.45139 13.9266 5.17839 13.9281 4.85027C13.9296 4.52215 13.6586 4.24661 13.3305 4.24257Z" fill="#1B3468"/>
</svg>
