<svg width="18" height="18" viewBox="0 0 18 18" fill="none" xmlns="http://www.w3.org/2000/svg">
<path d="M9.56407 0C9.89347 0.0457944 10.2257 0.0774982 10.5523 0.139144C13.2483 0.650632 15.3078 2.09315 16.7346 4.42655C17.6238 5.8807 18.0349 7.47681 17.9983 9.18071C17.9645 10.7486 17.5072 12.1975 16.7163 13.5456C16.6818 13.6044 16.648 13.6633 16.6022 13.7429C17.0788 13.7429 17.5276 13.7429 17.9895 13.7429C17.9895 14.0959 17.9895 14.4376 17.9895 14.7905C16.9337 14.7905 15.8768 14.7905 14.8118 14.7905C14.8118 13.7439 14.8118 12.7034 14.8118 11.6497C15.1535 11.6497 15.4953 11.6497 15.8511 11.6497C15.8511 12.052 15.8511 12.454 15.8511 12.8774C17.1327 10.8888 17.5548 7.27813 15.3765 4.31665C14.1051 2.58809 12.4028 1.52002 10.282 1.16459C8.16477 0.809503 6.22928 1.31289 4.45408 2.49932C4.42414 2.46092 4.39807 2.42992 4.37481 2.39645C4.20395 2.15198 4.0338 1.90751 3.8418 1.63169C4.15956 1.44182 4.46148 1.24525 4.77819 1.07582C5.89672 0.476966 7.08781 0.118713 8.35606 0.0267721C8.39587 0.023954 8.43463 0.00915887 8.47408 0C8.8373 0 9.20086 0 9.56407 0Z" fill="#1B3468"/>
<path d="M0.000352292 3.19922C1.04807 3.19922 2.09543 3.19922 3.15407 3.19922C3.15407 4.25636 3.15407 5.30083 3.15407 6.35445C2.81129 6.35445 2.47379 6.35445 2.11481 6.35445C2.11481 5.95146 2.11481 5.54671 2.11481 5.10814C0.675696 7.44964 0.520335 11.1495 2.8592 14.0225C5.21956 16.9227 9.78315 18.1116 13.5234 15.5035C13.7197 15.7846 13.9159 16.0657 14.1399 16.3869C13.6393 16.6603 13.1718 16.9516 12.6755 17.1813C8.72662 19.0074 4.18488 17.6699 1.71003 14.2498C0.726074 12.89 0.163463 11.3732 0.0299448 9.69885C0.0264219 9.65305 0.010921 9.60832 0.000704584 9.56287C0.000704584 9.19969 0.000704584 8.83615 0.000704584 8.47297C0.010921 8.41661 0.0264219 8.3606 0.0310017 8.30388C0.141269 6.91032 0.564372 5.61716 1.27424 4.41559C1.30207 4.36874 1.32779 4.32083 1.36548 4.2539C0.888833 4.2539 0.444592 4.2539 0 4.2539C0.000352292 3.90234 0.000352292 3.55078 0.000352292 3.19922Z" fill="#1B3468"/>
<path d="M14.1971 6.04298C13.9424 6.29732 13.6774 6.56927 13.4027 6.83135C13.3047 6.9247 13.2945 6.99551 13.3361 7.13077C13.4118 7.37806 13.5464 7.44359 13.793 7.42492C14.1189 7.40026 14.4479 7.41893 14.7889 7.41893C14.7889 8.47149 14.7889 9.51631 14.7889 10.583C14.4236 10.583 14.0569 10.5812 13.6898 10.5844C13.6109 10.5851 13.4893 10.5745 13.4611 10.6175C13.3822 10.7373 13.335 10.8799 13.2924 11.0191C13.2832 11.0483 13.3428 11.1047 13.3787 11.141C13.6538 11.4196 13.9311 11.6961 14.1946 11.9603C13.4481 12.7068 12.7086 13.4462 11.9576 14.1968C11.7043 13.9429 11.4319 13.678 11.1705 13.4028C11.0772 13.3046 11.006 13.295 10.8714 13.3363C10.6248 13.4116 10.5575 13.5452 10.5766 13.7924C10.6016 14.1183 10.5829 14.4473 10.5829 14.7886C9.51899 14.7886 8.46247 14.7886 7.3834 14.7886C7.3834 14.4241 7.38516 14.0573 7.38199 13.6906C7.38128 13.6117 7.3922 13.4902 7.34922 13.4617C7.2298 13.3828 7.08677 13.3352 6.94796 13.2926C6.91837 13.2834 6.862 13.3426 6.82572 13.3782C6.54705 13.6533 6.2705 13.9309 6.00593 14.1947C5.25978 13.4483 4.52032 12.7089 3.76853 11.9568C4.02288 11.7039 4.28816 11.4323 4.5633 11.1709C4.66124 11.0779 4.67251 11.0071 4.63059 10.8718C4.55414 10.6259 4.42132 10.558 4.17402 10.577C3.84815 10.6023 3.51911 10.5833 3.17773 10.5833C3.17773 9.53146 3.17773 8.48664 3.17773 7.41928C3.53637 7.41928 3.89747 7.42104 4.25821 7.41787C4.34312 7.41717 4.4717 7.43055 4.50411 7.38441C4.58549 7.26745 4.63094 7.12267 4.67357 6.98353C4.68273 6.95394 4.62389 6.89722 4.58831 6.86129C4.31211 6.58371 4.0338 6.30789 3.76923 6.04439C4.51856 5.29477 5.25802 4.55537 6.01051 3.80258C6.26804 4.0622 6.54459 4.33098 6.80881 4.61138C6.90216 4.71037 6.97438 4.69945 7.09557 4.66457C7.34359 4.59377 7.40876 4.45533 7.38974 4.20839C7.36472 3.88255 7.3834 3.55353 7.3834 3.21289C8.44767 3.21289 9.50455 3.21289 10.5829 3.21289C10.5829 3.59017 10.5808 3.96885 10.585 4.34718C10.5857 4.41763 10.5903 4.52648 10.6319 4.55044C10.7559 4.62195 10.8979 4.66598 11.0367 4.70614C11.0617 4.71354 11.1092 4.65541 11.142 4.623C11.4196 4.34683 11.6962 4.0696 11.96 3.8054C12.7076 4.55361 13.447 5.29301 14.1971 6.04298ZM9.00218 6.3639C7.54016 6.36319 6.33039 7.5542 6.32863 8.99566C6.32687 10.4385 7.53347 11.6348 8.99302 11.6373C10.4483 11.6398 11.6359 10.4579 11.6377 9.00517C11.6391 7.55067 10.4557 6.3646 9.00218 6.3639Z" fill="#1B3468"/>
<path d="M9.00919 10.5819C8.12917 10.5855 7.38759 9.86613 7.38477 9.00625C7.38196 8.14497 8.11789 7.42071 8.99721 7.41895C9.8642 7.41719 10.5769 8.12101 10.5832 8.98547C10.5896 9.86049 9.88147 10.5784 9.00919 10.5819Z" fill="#1B3468"/>
</svg>
