<svg width="14" height="18" viewBox="0 0 14 18" fill="none" xmlns="http://www.w3.org/2000/svg">
<path d="M0.392214 0C3.65793 0 6.92365 0 10.1898 0C10.4964 0.139489 10.5825 0.381835 10.582 0.708249C10.575 5.20103 10.5773 9.69428 10.5773 14.1875C10.5773 14.6454 10.3852 14.8361 9.92429 14.8361C6.84125 14.8361 3.75822 14.8361 0.675186 14.8361C0.189754 14.8361 0.00471585 14.652 0.00471585 14.1697C0.00471585 9.68254 0.00707003 5.19539 7.49396e-06 0.708249C-0.000934178 0.381365 0.0866413 0.139959 0.392214 0ZM5.28891 4.78115C4.25024 4.78115 3.21158 4.78256 2.17292 4.78021C1.92526 4.77974 1.73739 4.87555 1.63522 5.10193C1.47278 5.46263 1.74398 5.8346 2.16821 5.83507C3.48278 5.83695 4.79735 5.83554 6.11146 5.83554C6.88033 5.83554 7.64874 5.8346 8.41761 5.83601C8.65774 5.83648 8.84042 5.74114 8.94212 5.52228C9.10927 5.16252 8.84278 4.78256 8.42232 4.78162C7.37801 4.77974 6.33322 4.78115 5.28891 4.78115ZM5.27243 7.94526C6.31674 7.94526 7.36153 7.94432 8.40584 7.9462C8.64455 7.94667 8.83054 7.86072 8.93694 7.64233C9.11162 7.28398 8.85172 6.89322 8.43409 6.89181C7.44816 6.88852 6.46223 6.89087 5.4763 6.89087C4.37313 6.89087 3.26996 6.89181 2.16679 6.8904C1.93467 6.88993 1.75481 6.97682 1.6484 7.18582C1.46431 7.54746 1.72798 7.94338 2.15597 7.94479C3.1951 7.94714 4.23376 7.94526 5.27243 7.94526ZM5.31057 9.00012C4.26625 9.00012 3.22147 9.00153 2.17715 8.99918C1.92996 8.99871 1.74116 9.09123 1.6371 9.31761C1.47514 9.6708 1.73833 10.0526 2.14655 10.054C3.16779 10.0573 4.18856 10.0554 5.20981 10.0554C6.27766 10.0554 7.34599 10.0545 8.41385 10.0559C8.6535 10.0564 8.8376 9.96433 8.94071 9.74547C9.11021 9.38618 8.84607 9.00247 8.42703 9.00153C7.38789 8.99824 6.34923 9.00012 5.31057 9.00012ZM3.68712 3.72629C4.19751 3.72629 4.70742 3.72676 5.21781 3.72629C5.57659 3.72582 5.81577 3.51635 5.8186 3.20356C5.82142 2.8903 5.58083 2.67284 5.22629 2.67237C4.21163 2.67143 3.19698 2.67143 2.1828 2.67237C1.82968 2.67284 1.58767 2.89123 1.59049 3.20356C1.59332 3.51588 1.83344 3.72582 2.19128 3.72629C2.69036 3.72723 3.18898 3.72629 3.68712 3.72629ZM7.40531 11.1094C7.07102 11.1094 6.7372 11.1084 6.4029 11.1098C6.06155 11.1112 5.82236 11.3268 5.82048 11.6326C5.81813 11.9393 6.05684 12.1628 6.3949 12.1638C7.06914 12.1656 7.7429 12.1656 8.41714 12.1638C8.75567 12.1628 8.99391 11.9397 8.99109 11.6321C8.98826 11.3249 8.75096 11.1112 8.40772 11.1098C8.07343 11.1084 7.73914 11.1094 7.40531 11.1094Z" fill="#1B3468"/>
<path d="M3.17629 15.8907C3.26763 15.8907 3.33731 15.8907 3.407 15.8907C5.58038 15.8907 7.75328 15.8907 9.92666 15.8907C10.9705 15.8907 11.6349 15.2303 11.6349 14.1919C11.6353 10.6065 11.6349 7.02063 11.6349 3.43524C11.6349 3.36526 11.6349 3.29528 11.6349 3.21309C11.6862 3.20792 11.7304 3.19994 11.7747 3.19994C12.2385 3.199 12.7027 3.19806 13.1665 3.19994C13.5323 3.20135 13.7484 3.4141 13.7484 3.77762C13.7494 8.32394 13.7494 12.8703 13.7484 17.4166C13.7484 17.782 13.5333 17.999 13.1707 17.9994C10.0345 18.0004 6.89777 18.0004 3.76154 17.9994C3.39475 17.9994 3.1777 17.7853 3.17629 17.4246C3.17487 16.9216 3.17629 16.4181 3.17629 15.8907Z" fill="#1B3468"/>
</svg>
